<?xml version="1.0" encoding="UTF-8"?>
<svg clip-rule="evenodd" fill-rule="evenodd" stroke-linejoin="round" stroke-miterlimit="2" version="1.1" viewBox="0 0 1067 1067" xml:space="preserve" xmlns="http://www.w3.org/2000/svg"><g id="AK_Volume_Icon" transform="matrix(1.1454 0 0 1.1454 -73.866 -75.553)"><path d="m150.05 321.66 0.059-0.049 379.54-253.03 379.54 253.03-0.06 0.059v417.42l-379.54 252.82v-0.443l-379.54-252.38z" fill="#e0f5e0"/><path d="m530.66 488.61-379.54 253.03 379.54 253.03 379.54-253.03z" clip-rule="evenodd" fill="#8dc98d" fill-rule="evenodd" stroke-linejoin="round" stroke-miterlimit="2"/><path d="m530.66 994.02v-240.63l-379.54-252.38v240.63z" fill="#d0eed0"/><path d="m530.66 994.44v-240.41l379.54-252.82v240.41z" fill="#aac8aa"/><path d="m530.66 247.98-379.54 253.03 379.54 253.03 379.54-253.03z" fill="#80ff80"/><path d="m530.66 994.02v-417.42l-379.54-252.38v417.42z" fill="#619d61" fill-opacity=".6"/><path d="m530.66 994.46v-417.42l379.54-252.82v417.42z" fill="#619d61" fill-opacity=".6"/><path d="m530.72 71.134-379.54 253.03 379.54 253.03 379.54-253.03z" fill="#e0ffe0" fill-opacity=".2"/><path d="m283.82 412.34 246.88-164.58 246.93 164.62-246.88 164.58z" fill="#a0ffa0"/></g></svg>
