<?xml version="1.0" encoding="UTF-8"?>
<svg clip-rule="evenodd" fill-rule="evenodd" stroke-linejoin="round" stroke-miterlimit="2" version="1.1" viewBox="0 0 1067 1067" xml:space="preserve" xmlns="http://www.w3.org/2000/svg"><g id="AK_Object_Icon" transform="matrix(1.1454 0 0 1.1454 -75.523 -75.12)"><g id="AK_Volume_Icon"><g><path d="m150.05 321.66 0.059-0.049 379.54-253.03 379.54 253.03-0.06 0.059v417.42l-379.54 252.82v-0.443l-379.54-252.38z" fill="#e0f5e0"/><path d="m530.66 488.61-379.54 253.03 379.54 253.03 379.54-253.03z" clip-rule="evenodd" fill="#8dc98d" fill-rule="evenodd" stroke-linejoin="round" stroke-miterlimit="2"/><path d="m530.66 994.02v-240.63l-379.54-252.38v240.63z" fill="#d0eed0"/><path d="m530.66 994.44v-240.41l379.54-252.82v240.41z" fill="#aac8aa"/><path d="m530.66 247.98-379.54 253.03 379.54 253.03 379.54-253.03z" fill="#80ff80"/></g><path d="m530.66 994.02v-417.42l-379.54-252.38v417.42z" fill="#619d61" fill-opacity=".6"/><path d="m530.66 994.46v-417.42l379.54-252.82v417.42z" fill="#619d61" fill-opacity=".6"/><path d="m530.72 71.134-379.54 253.03 379.54 253.03 379.54-253.03z" fill="#e0ffe0" fill-opacity=".2"/><path d="m283.82 412.34 246.88-164.58 246.93 164.62-246.88 164.58z" fill="#a0ffa0"/></g><circle cx="733.41" cy="779.63" r="180.08" fill="#0060ae"/><g fill="#fff" fill-rule="nonzero"><path d="m680.55 780.74c0.057 8.956 4.296 16.97 11.052 21.99 6.723 5.575 11.052 14.072 11.052 23.509 0 16.967-13.755 30.629-30.717 30.629h-0.522c-16.985 0-30.756-13.662-30.756-30.629 0-9.437 4.358-17.934 11.091-23.509 6.714-5.02 11.106-13.034 11.043-21.99v-2.147c-0.067-9.027-4.329-17.042-11.043-22.013-6.733-5.624-11.091-14.096-11.091-23.558 0-16.944 13.771-30.631 30.756-30.631h0.522c16.962 0 30.717 13.687 30.717 30.631 0 9.462-4.329 17.934-11.052 23.558-6.756 4.971-11.116 12.986-11.052 22.013z"/><path d="m804.54 780.74c0.057 8.956 4.296 16.97 11.052 21.99 6.723 5.575 11.052 14.072 11.052 23.509 0 16.967-13.755 30.629-30.717 30.629h-0.523c-16.984 0-30.754-13.662-30.754-30.629 0-9.437 4.358-17.934 11.09-23.509 6.714-5.02 11.107-13.034 11.043-21.99v-2.147c-0.066-9.027-4.329-17.042-11.043-22.013-6.732-5.624-11.09-14.096-11.09-23.558 0-16.944 13.77-30.631 30.754-30.631h0.523c16.962 0 30.717 13.687 30.717 30.631 0 9.462-4.329 17.934-11.052 23.558-6.756 4.971-11.116 12.986-11.052 22.013z"/><path d="m742.54 827.09c0.057 8.955 4.296 16.967 11.052 21.988 6.723 5.577 11.052 14.073 11.052 23.51 0 16.968-13.755 30.63-30.717 30.63h-0.524c-16.985 0-30.755-13.662-30.755-30.63 0-9.437 4.359-17.933 11.092-23.51 6.714-5.021 11.106-13.033 11.043-21.988v-2.149c-0.067-9.028-4.329-17.041-11.043-22.012-6.733-5.624-11.092-14.096-11.092-23.557 0-16.945 13.77-30.632 30.755-30.632h0.524c16.962 0 30.717 13.687 30.717 30.632 0 9.461-4.329 17.933-11.052 23.557-6.756 4.971-11.116 12.984-11.052 22.012z"/><path d="m880.64 779.63c0 12.794-10.397 23.171-23.248 23.171-12.834 0-23.248-10.377-23.248-23.171 0-12.802 10.414-23.172 23.248-23.172 12.851 0 23.248 10.37 23.248 23.172z"/><path d="m764.4 686.94c0 17.056-13.869 30.896-30.997 30.896-17.106 0-30.997-13.84-30.997-30.896 0-17.063 13.891-30.895 30.997-30.895 17.128 0 30.997 13.832 30.997 30.895z"/><path d="m632.66 779.63c0 12.794-10.398 23.171-23.248 23.171-12.836 0-23.248-10.377-23.248-23.171 0-12.802 10.412-23.172 23.248-23.172 12.85 0 23.248 10.37 23.248 23.172z"/></g></g></svg>
