<?xml version="1.0" encoding="UTF-8"?>
<svg clip-rule="evenodd" fill-rule="evenodd" stroke-linejoin="round" stroke-miterlimit="1.5" version="1.1" viewBox="0 0 63 63" xml:space="preserve" xmlns="http://www.w3.org/2000/svg" xmlns:serif="http://www.serif.com/"><g id="AK_Spatial_Audio_Volume_Explorer"><g id="Audio-Generator-Explorer" serif:id="Audio Generator Explorer"><rect width="62.5" height="62.5" fill-opacity="0"/><rect x="8.333" y="8.333" width="45.833" height="4.167" fill="#ebebeb"/><g fill="#323232"><rect x="4.167" y="54.167" width="54.167" height="4.167"/><rect x="4.167" y="4.167" width="4.167" height="50"/><rect x="8.333" y="4.167" width="50" height="4.167"/><rect x="54.167" y="8.333" width="4.167" height="45.833"/></g><rect x="8.333" y="50" width="45.833" height="4.167" fill="#ebebeb"/><rect x="50" y="12.5" width="4.167" height="37.5" fill="#ebebeb"/><g fill-opacity=".19"><rect x="12.5" y="12.5" width="37.5" height="37.5"/><rect x="12.5" y="16.667" width="4.167" height="29.167"/><rect x="45.833" y="16.667" width="4.167" height="29.167"/><rect x="12.5" y="12.5" width="37.5" height="4.167"/></g><path d="m30.355 23.076 15.464-2.243-2.177 15.473-13.287-13.23z" fill="#e6e6e6"/><path d="m16.667 29.167 10.1 10.799s6.572-6.599 11.996-12.047" fill="none" stroke="#e6e6e6" stroke-width="4.17px"/><rect x="12.5" y="45.833" width="37.5" height="4.167" fill-opacity=".19"/><rect x="8.333" y="12.5" width="4.167" height="37.5" fill="#ebebeb"/></g></g></svg>
