<?xml version="1.0" encoding="UTF-8" standalone="no"?><!DOCTYPE svg PUBLIC "-//W3C//DTD SVG 1.1//EN" "http://www.w3.org/Graphics/SVG/1.1/DTD/svg11.dtd"><svg width="100%" height="100%" viewBox="0 0 63 63" version="1.1" xmlns="http://www.w3.org/2000/svg" xmlns:xlink="http://www.w3.org/1999/xlink" xml:space="preserve" xmlns:serif="http://www.serif.com/" style="fill-rule:evenodd;clip-rule:evenodd;stroke-linejoin:round;stroke-miterlimit:2;"><g id="AK_Acoustic_Portal_Explorer"><g><rect x="0" y="-0" width="62.5" height="62.5" style="fill:#fff;fill-opacity:0;"/></g><rect x="12.5" y="50" width="37.5" height="4.167" style="fill:#323232;"/><rect x="25" y="58.333" width="12.5" height="4.167" style="fill:#323232;"/><rect x="25" y="-0" width="12.5" height="4.167" style="fill:#323232;"/><rect x="12.5" y="12.5" width="4.167" height="37.5" style="fill:#323232;"/><rect x="12.5" y="8.333" width="37.5" height="4.167" style="fill:#323232;"/><rect x="45.833" y="12.5" width="4.167" height="37.5" style="fill:#323232;"/><rect x="29.167" y="45.833" width="4.167" height="12.5" style="fill:#ebebeb;fill-opacity:0.91;"/><rect x="29.167" y="4.167" width="4.167" height="12.5" style="fill:#ebebeb;fill-opacity:0.91;"/><rect x="20.833" y="16.667" width="20.833" height="29.167" style="fill:#ebebeb;fill-opacity:0.44;"/><path d="M45.833,16.667l0,29.166c0,2.302 -1.865,4.167 -4.166,4.167l-20.834,0c-2.301,-0 -4.166,-1.865 -4.166,-4.167l-0,-29.166c-0,-2.302 1.865,-4.167 4.166,-4.167l20.834,-0c2.301,0 4.166,1.865 4.166,4.167Zm-4.166,-0l-20.834,-0l0,29.166l20.834,0l-0,-29.166Z" style="fill:#ebebeb;"/><rect x="29.167" y="12.5" width="4.167" height="37.5" style="fill:#a1a2a1;"/><rect x="33.333" y="4.167" width="4.167" height="54.167" style="fill-opacity:0.22;"/><rect x="29.167" y="12.5" width="4.167" height="4.167" style="fill:#3c3d3c;fill-opacity:0.5;"/><rect x="29.167" y="45.833" width="4.167" height="4.167" style="fill:#3c3d3c;fill-opacity:0.5;"/><rect x="25" y="4.167" width="4.167" height="54.167" style="fill-opacity:0.22;"/></g></svg>