<?xml version="1.0" encoding="UTF-8"?>
<svg clip-rule="evenodd" fill-rule="evenodd" stroke-linejoin="round" stroke-miterlimit="2" version="1.1" viewBox="0 0 63 63" xml:space="preserve" xmlns="http://www.w3.org/2000/svg"><g transform="matrix(.10483 0 0 .10518 -13.889 -24.643)">
    <rect x="166.49" y="266.32" width="534.11" height="533.64" fill-opacity=".5"/>
    <path d="m132.5 234.3v599h601v-599h-567zm34 32h534v533.7h-534z" fill="#c9c9c9"/>
    <g>
      <path d="m263.6 799.9h-17.4l-0.3-1.1a158.7 158.7 0 0 0-31-52.5 171.6 171.6 0 0 0-28-24.5 204.3 204.3 0 0 0-18.4-10.8l-2-1v-48.8l0.3 0.1 2 0.8a200.5 200.5 0 0 1 124.3 137.7c0.1 0.1-0.2 0.2-6 0.1zm80.7 0h-17v-0.5a239.2 239.2 0 0 0-16-47.5 213.3 213.3 0 0 0-12.9-23.9 234.8 234.8 0 0 0-130.8-101.5l-1.1-0.3v-26l0.1-25.8 8.1 2a281.7 281.7 0 0 1 142.5 92.2 284.2 284.2 0 0 1 61 131.2c0 0.1-0.4 0.2-8.5 0.1zm54.7 0v-2.2a257 257 0 0 0-81.7-178.4c-30-28-65.7-48.2-104.5-59.4l-3.2-1-2.1 0.5a308.2 308.2 0 0 1-40.5 6l-0.5 0.1v-64.8l3.6 0.4a304.6 304.6 0 0 1 91 22.8 293 293 0 0 0 167.7-220.6 294.1 294.1 0 0 0 3.4-36.5v-0.5h16.8v1.2l-0.2 3.9a307.2 307.2 0 0 1-117.3 229.2 309 309 0 0 1-49.4 31.8l-1.3 0.7 1.7 1a309.6 309.6 0 0 1 166.4 264.3v1.6h-24.9c-19.8 0-25 0-25-0.2zm-232.5-334 0.1-25.8 3.3-1a232 232 0 0 0 135.1-112.6 255.6 255.6 0 0 0 13-29 239.1 239.1 0 0 0 9.2-30.9v-0.4h25.5c24.2 0 25.4 0 25.4 0.2l-0.4 2a284 284 0 0 1-211.2 223.4l-0.1-26zm0-88v-27.1l2-1.1a150.1 150.1 0 0 0 72.5-83.2c0.1-0.2 1.4-0.2 26.2-0.2 24.7 0 26 0 26 0.2l-0.5 1.6a200 200 0 0 1-126.1 136.9zm0-92.5v-19h39.8c0 0.2-2 3.2-3.3 5.2a103 103 0 0 1-36.4 32.8z" fill="#f8f8f8"/>
      <path d="m281 799.8-0.6-2a187.8 187.8 0 0 0-112-123.2l-2-0.8v-12.5h0.4l3.4 1.3a199.4 199.4 0 0 1 116.8 117.7c2 5.5 4.5 13 5.8 18.3l0.4 1.4h-6.2c-4.8 0-6.1 0-6.2-0.2zm80.2 0.1-0.6-3a266.5 266.5 0 0 0-194-205.2l-0.1-8.7 0.1-8.6 2.5 0.6a282.8 282.8 0 0 1 208.9 224l0.1 0.9h-17zm37.8-0.1v-1.2l-0.5-9.2a258.4 258.4 0 0 0-186.8-229.9l-2.1-0.6-2.2 0.5a305.9 305.9 0 0 1-40.5 6l-0.4 0.1v-64.8a311.9 311.9 0 0 1 94.7 23.2l5.8-2.7a292.3 292.3 0 0 0 165.2-254.1v-0.8h16.8v1.1a308.2 308.2 0 0 1-168.1 265.7l2 1.1a310.1 310.1 0 0 1 141.4 152.8 307 307 0 0 1 24.7 111.4v1.6h-25c-22.6 0-25 0-25-0.2zm-232.5-316.5v-8.7l1.6-0.4a264.1 264.1 0 0 0 136-87 265.3 265.3 0 0 0 57.2-120.9h16.9l-0.5 2.7a283.2 283.2 0 0 1-211.1 223l-0.1-8.6zm0-105.4v-27l1.3-0.8a152.5 152.5 0 0 0 52-44 151.6 151.6 0 0 0 20.9-38.7l0.3-1h9.9a5931.4 5931.4 0 0 1 42.3 0l-0.3 1.1a201 201 0 0 1-126.3 137.5zm0-92.5v-19h39.8a102.8 102.8 0 0 1-39.4 37.8l-0.4 0.2z" fill="#f5f5f5"/>
      <path d="m280.8 799.3a188.7 188.7 0 0 0-114-125.4h-0.3v-6.3l0.1-6.3a184 184 0 0 1 27.9 12.4 202.6 202.6 0 0 1 56 45 199.7 199.7 0 0 1 42.4 80l0.3 1.3h-12.2zm80.3 0-0.3-1.6a265.7 265.7 0 0 0-38.6-94.2 267 267 0 0 0-154.2-111.5l-1.6-0.4v-8.6l0.1-8.6 2 0.5a281.6 281.6 0 0 1 140.5 84.5 284.4 284.4 0 0 1 69 140.3c0 0.3 0 0.3-8.4 0.3h-8.5zm54.6 0.6h-16.6v-1.1l-0.2-3.5a258.2 258.2 0 0 0-188.4-236.3l-0.9-0.2-2.7 0.6a301.8 301.8 0 0 1-40 6h-0.4v-64.8h0.6l3 0.4a306.8 306.8 0 0 1 89.6 22.3l1.5 0.6 2.8-1.3a292.6 292.6 0 0 0 168.2-255.2v-1.2h16.8v1.3l-0.5 10.5a308 308 0 0 1-165.8 254l-1.9 1 1.5 0.8a309.5 309.5 0 0 1 166.7 264.9v1.3h-8.3zm-249.2-316.7 0.1-8.6 3.5-1a265.8 265.8 0 0 0 191.1-207.2h17l-0.3 1.3a283.3 283.3 0 0 1-211.4 224.2zm0-96.1v-18l2.4-1a167.6 167.6 0 0 0 88.8-99.3l0.9-2.5h34.6l-0.4 1.4a201.2 201.2 0 0 1-120.7 135.3l-5.5 2v-18zm0-101.7v-19h19.8c18 0 19.9 0 19.8 0.2a103 103 0 0 1-39.2 37.6l-0.4 0.2z" fill="#f0f0f0"/>
      <path d="m280.8 799.3a184.9 184.9 0 0 0-24.7-53.8 189.7 189.7 0 0 0-88-71l-1.6-0.7v-6.2l0.1-6.3a200.8 200.8 0 0 1 126.4 137.7l0.3 1h-12.3zm80-1.9a265.8 265.8 0 0 0-96.8-157.4 264.9 264.9 0 0 0-96-48l-1.5-0.4v-8.6l0.1-8.6 6.5 1.6a281 281 0 0 1 149.3 99.1 283 283 0 0 1 55.6 124.6c0 0.2-0.1 0.3-8.4 0.3h-8.5zm71.4 2.2v-2.6a290.9 290.9 0 0 0-104.5-212.9 291.6 291.6 0 0 0-64.5-40.9l-2-1-1 0.5a317.6 317.6 0 0 1-55 17.2 305.9 305.9 0 0 1-38.3 5.5h-0.4v-64.7h0.6l3 0.4a305.5 305.5 0 0 1 88.2 21.7l2.9 1.2 1.4-0.6a292 292 0 0 0 169.7-256.8c0-0.3 0-0.3 8.3-0.3h8.3v2.5l-0.7 11.5a307.8 307.8 0 0 1-164 251l-3.5 1.8 1.4 0.7 7.5 4a309.6 309.6 0 0 1 159.4 261.2v1h-16.6zm-265.7-316.3v-8.7l1.4-0.3 4.4-1.2a267.8 267.8 0 0 0 188.4-204.2l0.5-2.6h8.5c7.7 0 8.4 0 8.4 0.2l-2.4 12.1a282.7 282.7 0 0 1-136.7 184.6 280.8 280.8 0 0 1-72.4 28.7v-8.6zm0-96.2v-18l1.7-0.7a168 168 0 0 0 89.6-99.8l0.8-2.3h34.6l-0.3 1.2a200.4 200.4 0 0 1-126.3 137.5l-0.1-18z" fill="#eee"/>
      <path d="m280.9 799.5-0.6-2.1a188.4 188.4 0 0 0-112.8-123.2l-1-0.4v-12.5a199.4 199.4 0 0 1 83.5 56.9 199.8 199.8 0 0 1 43.1 81.6c0 0.1-1.1 0.2-6 0.2h-6.1zm79.8-2a267.3 267.3 0 0 0-193.9-205.7l-0.3-0.2v-17.2l7.2 1.8a283.2 283.2 0 0 1 204.4 223.6c0 0.1-0.8 0.2-8.4 0.2h-8.5zm71.5 1.9v-2.6a290.6 290.6 0 0 0-109.3-216.6 291.3 291.3 0 0 0-60-37.1l-1.7-0.8-1.6 0.6a307.3 307.3 0 0 1-92.8 22.5h-0.3v-16.7h0.3l3.6-0.4a288.6 288.6 0 0 0 68.1-15.2l-9.7-3.2a288.5 288.5 0 0 0-60.8-12.2l-1.5-0.1v-16.9l0.6 0.1a308 308 0 0 1 92.7 22.6l1.4 0.6 2.4-1 13.5-6.8a292 292 0 0 0 155.2-249.2v-0.7h16.6v0.7l-0.6 12.2a309.4 309.4 0 0 1-167.4 253.8 309.8 309.8 0 0 1 151.4 174.6 309 309 0 0 1 16.6 91.2v1.2h-16.6zm-265.7-316.1v-8.6l1-0.3a264.7 264.7 0 0 0 134.3-84.5 266.7 266.7 0 0 0 59-121.3l0.4-2.3h8.5c6.8 0 8.4 0 8.4 0.2a282.2 282.2 0 0 1-101.1 170.8 281.6 281.6 0 0 1-110.2 54.5h-0.3zm0-96.2v-18l1.3-0.5a167 167 0 0 0 90-99.6l0.8-2.6h34.6l-0.1 0.4-0.6 2.2a200.9 200.9 0 0 1-126 136v-18z" fill="#e3e3e3"/>
      <path d="m281 799.7a189.5 189.5 0 0 0-112.8-125.2l-1.7-0.7v-12.5l5.5 2a201.6 201.6 0 0 1 121 136.5c0 0.1-1.2 0.2-6 0.2h-6zm80.3 0.2-0.5-2.3a267.2 267.2 0 0 0-193.8-205.9l-0.5-0.1v-17.2l6.4 1.6a283.2 283.2 0 0 1 205.1 223.8 226.6 226.6 0 0 1-16.8 0zm71-0.7-0.2-2.8a290.4 290.4 0 0 0-94.6-203.7c-21.9-20-47-36.8-73.5-49.1l-2.8-1.3-2.5 1a308.2 308.2 0 0 1-92 22.1c-0.2 0-0.2-1.7-0.2-8.3v-8.3h0.2l2.2-0.3c1.1 0 3.5-0.3 5.4-0.5 21.1-2.4 42.4-7.2 62.4-14.2l1.8-0.6-0.5-0.2a289.4 289.4 0 0 0-70-15.3l-1.5-0.1v-16.9h0.5l3 0.4a303.4 303.4 0 0 1 90.3 22.5l1 0.4 2.4-1.1a292.7 292.7 0 0 0 168.5-255.4v-1h16.8v0.2l-0.5 9.5a307.3 307.3 0 0 1-44.5 142.3 310 310 0 0 1-123.2 114.6l1.9 1a309.9 309.9 0 0 1 156.1 195 308.6 308.6 0 0 1 10.1 69.8v1h-16.6zm-265.8-316v-8.5l2.5-0.7a263.8 263.8 0 0 0 79-36 267.9 267.9 0 0 0 112.6-168.4l0.7-3.2h16.7l-0.4 2.4a281.3 281.3 0 0 1-42.2 104.2 284.4 284.4 0 0 1-168.7 118.8c-0.2 0-0.2-0.3-0.2-8.5zm0-96.1v-18l1-0.3a144.7 144.7 0 0 0 22.7-12.3 176.3 176.3 0 0 0 22.7-17.8 170.3 170.3 0 0 0 44.8-69.4l1-2.8 17.1-0.1h17.3l-1 4a201.4 201.4 0 0 1-125.4 134.6h-0.2z" fill="#dedede"/>
      <path d="m281 799.7-0.6-1.8a188.9 188.9 0 0 0-111-123l-2.9-1.1v-12.5a200.5 200.5 0 0 1 126.6 138.5c0 0.1-1.5 0.2-6 0.2h-6zm80.3 0.1-0.6-2.6a267.7 267.7 0 0 0-193.7-205.5l-0.4-0.1v-17.2h0.3a298.7 298.7 0 0 1 47.7 16.4 284.8 284.8 0 0 1 163.6 209c0 0.2-16.8 0.2-16.8 0zm71-0.7-0.2-2.8a290.8 290.8 0 0 0-61.1-167.3 293 293 0 0 0-108.5-86l-1.4-0.7-2.5 1a307.7 307.7 0 0 1-92 22.2v-16.6h0.3l3.2-0.4a287.7 287.7 0 0 0 68.3-15.3 289.4 289.4 0 0 0-70.4-15.4l-1.5-0.1v-16.9l0.5 0.1 2.9 0.3a305.4 305.4 0 0 1 91.4 23l6.8-3.3a292.8 292.8 0 0 0 162-226.4 292 292 0 0 0 2.1-25.5l0.1-2.5h16.7v1.7a320 320 0 0 1-14 82.4 413.6 413.6 0 0 1-9.9 27 69.1 69.1 0 0 1-1.6 3.6 189.2 189.2 0 0 1-2.7 6.3 313 313 0 0 1-71.5 98l-2.3 2a282 282 0 0 0-7 6.2 210.7 210.7 0 0 1-10.1 8.2 320.4 320.4 0 0 1-49 31.3l2.5 1.4a309.8 309.8 0 0 1 164 240.4 309.9 309.9 0 0 1 1.6 24.4v0.7h-16.6zm-265.9-315.8v-8.6l0.5-0.2a265.3 265.3 0 0 0 85-39.3 267.6 267.6 0 0 0 109.1-167.2l0.3-1.5h16.7a281.4 281.4 0 0 1-90 161.5 283.8 283.8 0 0 1-120.7 63.8l-0.7 0.2zm0-87.2v-9l2.3-0.9a183.8 183.8 0 0 0 107-119.8 412.6 412.6 0 0 1 17.3 0 200 200 0 0 1-126.3 138.6l-0.2 0.1z" fill="#dcdcdc"/>
      <path d="m432.2 798.9-0.1-3.9a292 292 0 0 0-170.4-252.5l-0.6-0.3-2.6 1.1a325 325 0 0 1-46 14.9l-3 0.7-1.8-0.5a259.7 259.7 0 0 0-41.1-7.4l-0.1-1.1v-1.1a287.8 287.8 0 0 0 71.9-15.6 288.8 288.8 0 0 0-71.8-15.7l-0.1-8.4v-8.4h0.4l3 0.4a307.1 307.1 0 0 1 116.6 35 309.1 309.1 0 0 1 162.4 263.9h-16.6zm-151.9-1.4a188.6 188.6 0 0 0-110.6-122.5l-3.2-1.2v-12.5a199.2 199.2 0 0 1 126.6 138.5h-12zm80.4-0.5a266 266 0 0 0-129-178.8 262.3 262.3 0 0 0-63.1-26l-2.1-0.7v-8.5c0-8.2 0-8.6 0.2-8.6l2.1 0.6a282.8 282.8 0 0 1 209.3 224.6v0.2h-16.8zm-194.2-313.7v-8.6l0.4-0.1a264.2 264.2 0 0 0 60.8-24.2 268.1 268.1 0 0 0 133-180.8l0.6-3.2h16.7l-1.5 8a282.5 282.5 0 0 1-97.2 160.8 281.2 281.2 0 0 1-109.3 55.8l-3.5 0.9zm0-87.2v-9l1.1-0.4 9.4-4a183.9 183.9 0 0 0 98.3-114.3l0.6-2h17.2l-0.6 2.3a199.7 199.7 0 0 1-126 136.3v-9z" fill="#d1d1d1"/>
      <path d="m432.2 798.5-0.1-3.9a292 292 0 0 0-208.3-266.3 289 289 0 0 0-57-10.8h-0.3v-8.5c0-8 0-8.4 0.2-8.3l1.2 0.1 4.7 0.4a304.7 304.7 0 0 1 192.9 95.8 310.5 310.5 0 0 1 56.7 85.2 307.2 307.2 0 0 1 26.7 116.6v1.3h-16.6zm-151.4 0.7-2.6-8.7a188.3 188.3 0 0 0-108.4-115.4l-3.3-1.4v-12.4l1.2 0.4a199.9 199.9 0 0 1 125.4 138l-6 0.1h-6.1zm80.5 0.5-0.7-3.4a266.9 266.9 0 0 0-192.6-204.3l-1.6-0.4v-17.1l0.5 0.2a283.5 283.5 0 0 1 211 225.1c0.1 0.1-0.3 0.1-8.3 0.1a75 75 0 0 1-8.4 0zm-194.8-316.5v-8.5l1.3-0.3a265.5 265.5 0 0 0 127.2-76.7 267.3 267.3 0 0 0 65.6-128l0.7-3.2h8.4l8.4 0.1-0.4 1.7a282.6 282.6 0 0 1-94.1 163.3 281.7 281.7 0 0 1-117 60.2zm0-87.1v-8.9l1.3-0.5 3.9-1.6a183.7 183.7 0 0 0 103.8-117.2l0.4-1.5h17.2a200 200 0 0 1-126.6 138.6v-9z" fill="#c4c4c4"/>
      <path d="m432.3 799.6-0.4-8.3a290.8 290.8 0 0 0-99.1-202.8 290.5 290.5 0 0 0-166-71h-0.3v-16.7h1.1l4.8 0.5a305.7 305.7 0 0 1 211.3 117 307.6 307.6 0 0 1 65.3 180.6v1h-16.6zm-265.8-403.5v-8.9l1-0.4a182.4 182.4 0 0 0 81.2-63.8c11.8-16.5 21-35.3 26.6-54.5l0.6-2.1h17.2l-0.7 2.6a199.6 199.6 0 0 1-124.7 135.6l-1.2 0.4z" fill="#b7b7b7"/>
      <path d="m432.3 799.4-0.4-8.3a290.6 290.6 0 0 0-100.8-204 290.1 290.1 0 0 0-164.1-69.7h-0.5v-16.6h0.4l8 0.8a305.1 305.1 0 0 1 206.7 114.1 308.4 308.4 0 0 1 67.4 183.4v0.9h-16.6zm-265.8-403.3v-8.9l2-0.8a183.3 183.3 0 0 0 106.8-117.4l0.7-2.4h17.2l-0.3 1.1a200.1 200.1 0 0 1-126 137.3h-0.3z" fill="#a8a8a8"/>
      <path d="m432.3 799-0.5-10a290.8 290.8 0 0 0-118.6-216.3 288 288 0 0 0-146.5-55.2c-0.2 0-0.2-0.5-0.2-8.3v-8.4h0.3l8 0.8a305.2 305.2 0 0 1 145.5 55.8 310 310 0 0 1 105 132 307.6 307.6 0 0 1 23.6 109.9v0.5h-16.6z" fill="#8a8a8a"/>
      <path d="m432.3 798.7a290.9 290.9 0 0 0-36.6-132.4 292.3 292.3 0 0 0-156.9-133.3l2-0.8a302 302 0 0 0 20.3-8.2l2.1 0.9a308.3 308.3 0 0 1 118 90.2 307.5 307.5 0 0 1 67.6 183v1.6h-16.5zm-265.8-290.6c0-6.5 0-7.3 0.2-7.3a347.8 347.8 0 0 1 41.7 6.4l1 0.2-0.7 0.2a257.3 257.3 0 0 1-41.7 7.6h-0.5z" fill="#747474"/>
      <path d="m259.7 541.6a293.2 293.2 0 0 0-20.7-8.6l1-0.4a303.8 303.8 0 0 0 21.3-8.6l0.5 0.2 2.6 1.1c4.6 2 10 4.5 14 6.6l2.3 1.2-2.9 1.4c-5.7 2.9-16 7.6-16.5 7.5l-1.5-0.5z" fill="#6c6c6c"/>
    
    
      <path d="m603.2 266.4h17.4l0.4 1a158.5 158.5 0 0 0 31 52.6 171.9 171.9 0 0 0 28 24.4 205 205 0 0 0 18.5 10.9l2 1v48.7l-0.3-0.1-2-0.8a201 201 0 0 1-124.7-137.7 13055 13055 0 0 0 29.6-0.1zm-80.9 0h17l0.1 0.5a238.6 238.6 0 0 0 16 47.5 213 213 0 0 0 12.9 23.9 234.9 234.9 0 0 0 131.2 101.5l1.1 0.3v26l-0.1 25.8-8.2-2a282.8 282.8 0 0 1-142.8-92.2 284 284 0 0 1-61.2-131.2 23076 23076 0 0 0 34-0.1zm-55 0 0.2 2.2a256.6 256.6 0 0 0 82 178.4c30 28 65.7 48.2 104.6 59.4l3.3 1 2.1-0.5a310 310 0 0 1 40.6-6l0.5-0.1v64.7l-3.6-0.3a306.2 306.2 0 0 1-91.4-22.8 293.4 293.4 0 0 0-168.2 220.6 293.3 293.3 0 0 0-3.3 36.5v0.5h-16.8v-1.2l0.2-4a306.6 306.6 0 0 1 38.5-136.2 310.4 310.4 0 0 1 128.8-124.7l1.3-0.6-1.7-1a310.1 310.1 0 0 1-120-110.4 306.9 306.9 0 0 1-47-153.9v-1.6h25c20 0 25 0 25 0.2zm233.3 333.9-0.1 26-3.3 1a233 233 0 0 0-145.7 133.6l-3 7.8a238.6 238.6 0 0 0-9.1 30.9l-0.1 0.4h-25.6c-24.2 0-25.5 0-25.4-0.2l0.4-2a283.8 283.8 0 0 1 211.8-223.4zm0 88.1v27.1l-2.1 1.1a150.6 150.6 0 0 0-72.6 83.2c-0.1 0.2-1.5 0.2-26.3 0.2s-26.1 0-26-0.2l0.4-1.7a199.8 199.8 0 0 1 126.5-136.8zm0 92.5v19h-40a103.2 103.2 0 0 1 39.8-38c0.2 0 0.2 8.5 0.2 19z" fill="#f8f8f8"/>
      <path d="m585.8 266.5 0.6 2a189.2 189.2 0 0 0 112.2 123.2l2 0.7v12.6h-0.3l-3.4-1.3a200 200 0 0 1-123-136l-0.4-1.4h6.2c4.8 0 6.1 0 6.1 0.2zm-80.5-0.1 0.6 3a266.2 266.2 0 0 0 85.4 147.3 266.6 266.6 0 0 0 109.2 57.9l0.1 8.6-0.1 8.7-2.5-0.6a283.7 283.7 0 0 1-209.6-224.1l-0.1-0.9h17zm-38 0.1 0.2 1.1 0.4 9.3a257.7 257.7 0 0 0 98.6 184.7 259.3 259.3 0 0 0 88.8 45.2l2 0.6 2.3-0.5a307.6 307.6 0 0 1 40.6-6l0.4-0.1v64.7a313.7 313.7 0 0 1-95-23.1l-5.8 2.6a293.3 293.3 0 0 0-159.5 202.6 293.3 293.3 0 0 0-6.2 51.6v0.8h-16.8v-1.1a307.6 307.6 0 0 1 141.8-250.3 311 311 0 0 1 26.9-15.4l-2-1.1a310.9 310.9 0 0 1-142-152.8 306.4 306.4 0 0 1-24.6-111.3l-0.1-1.6h25c22.7 0 25 0 25 0.2zm233.4 316.5v8.7l-1.6 0.4a265.3 265.3 0 0 0-136.3 87 264.8 264.8 0 0 0-57.5 120.9h-17l0.5-2.8a282.9 282.9 0 0 1 92-160.7 284.4 284.4 0 0 1 119.7-62.1l0.1 8.6zm0 105.4v27l-1.3 0.7a153 153 0 0 0-52.2 44.1 151.5 151.5 0 0 0-21 38.6l-0.3 1h-9.9a5965.8 5965.8 0 0 1-42.4 0l0.2-1a201 201 0 0 1 126.7-137.5l0.1 27zm0 92.5v19h-40a102.8 102.8 0 0 1 39.5-37.8l0.5-0.3z" fill="#f5f5f5"/>
      <path d="m586 267a188.5 188.5 0 0 0 114.4 125.3l0.2 0.1v6.3l-0.1 6.3a184.8 184.8 0 0 1-28-12.4 203.3 203.3 0 0 1-56.2-45 199.6 199.6 0 0 1-42.5-80l-0.3-1.3h12.2zm-80.6-0.1 0.4 1.7a265.4 265.4 0 0 0 38.7 94.2 267.7 267.7 0 0 0 154.5 111.5l1.5 0.4v17.2l-2-0.5a282.8 282.8 0 0 1-141-84.5 284.3 284.3 0 0 1-69.1-140.4c0-0.2 0-0.2 8.4-0.2h8.5zm-54.7-0.5h16.6v1.1l0.3 3.5a257.5 257.5 0 0 0 113.7 201.4 258 258 0 0 0 75.2 34.7l0.9 0.3 2.7-0.6a303.5 303.5 0 0 1 40-6h0.5v64.8l-0.6-0.1-3-0.3a308.5 308.5 0 0 1-90-22.2l-1.5-0.6-2.8 1.3a293.4 293.4 0 0 0-97 73 290.8 290.8 0 0 0-71.7 182.2v1.2h-16.7v-1.3l0.5-10.5a307.5 307.5 0 0 1 96.3-204.5c21-19.7 44.4-36.3 70-49.5l1.8-1-1.4-0.8a310 310 0 0 1-128.5-124.5 306.7 306.7 0 0 1-38.7-140.4l-0.1-1.3h8.3l25 0.1zm249.9 316.7-0.1 8.6-3.5 0.9a267 267 0 0 0-191.7 207.3h-17l0.2-1.3a283 283 0 0 1 88.6-158.8 283 283 0 0 1 123.4-65.4zm0 96.1v18l-2.4 1a168.2 168.2 0 0 0-89.1 99.3l-0.8 2.5h-34.8l0.4-1.5a200.9 200.9 0 0 1 126.6-137.2v18zm0 101.6v19h-20l-19.8-0.1 3.4-5.3a103.1 103.1 0 0 1 36-32.3l0.4-0.3z" fill="#f0f0f0"/>
      <path d="m586 267a184.6 184.6 0 0 0 24.7 53.8 190 190 0 0 0 88.3 71l1.6 0.7v6.2l-0.1 6.3a201.1 201.1 0 0 1-126.7-137.7l-0.3-1h12.3zm-80.2 1.9a265.3 265.3 0 0 0 97 157.4 266 266 0 0 0 96.2 48l1.5 0.4v17.2l-6.5-1.7a282.3 282.3 0 0 1-149.7-99 282.7 282.7 0 0 1-56-124.7c0-0.2 0.2-0.2 8.5-0.2h8.5zm-71.7-2.2 0.1 2.6a290.4 290.4 0 0 0 104.8 212.9 292.6 292.6 0 0 0 64.6 40.9l2 0.9 1-0.4a319.1 319.1 0 0 1 55.3-17.2 307.6 307.6 0 0 1 38.3-5.5h0.3v64.7l-0.5-0.1-3-0.3a307.1 307.1 0 0 1-88.4-21.7l-3-1.2-1.4 0.6a292.8 292.8 0 0 0-170.2 256.8c0 0.3 0 0.3-8.3 0.3h-8.3v-2.5l0.6-11.5a307.3 307.3 0 0 1 107-212 308.8 308.8 0 0 1 57.5-39l3.5-1.8-1.3-0.7-7.6-4a310.2 310.2 0 0 1-137.9-156 307 307 0 0 1-21.9-105.2v-1h16.7zm266.5 316.3v8.6l-1.4 0.4-4.4 1.2a268.2 268.2 0 0 0-189 204.2l-0.5 2.6h-8.5c-7.7 0-8.4 0-8.4-0.2a282.2 282.2 0 0 1 83.6-155.1 285.4 285.4 0 0 1 128.5-70.3zm0 96.2v18l-1.7 0.7a168.5 168.5 0 0 0-89.9 99.8l-0.7 2.3h-34.8l0.3-1.2a200.3 200.3 0 0 1 126.7-137.5l0.1 18z" fill="#eee"/>
      <path d="m585.9 266.8 0.6 2a188.1 188.1 0 0 0 113.1 123.3l1 0.4v12.5a200 200 0 0 1-126.9-138.5c0-0.1 1-0.2 6-0.2h6zm-80.1 2a267.3 267.3 0 0 0 194.5 205.7l0.3 0.2v17.3l-7.3-1.8a283.2 283.2 0 0 1-131-78.1 283 283 0 0 1-74-145.5c0-0.2 0.9-0.2 8.5-0.2h8.5zm-71.7-2 0.1 2.7a290 290 0 0 0 109.6 216.6 292.3 292.3 0 0 0 60.2 37.1l1.7 0.8 1.5-0.6a308.8 308.8 0 0 1 93.1-22.5h0.3v16.7h-0.4l-3.5 0.3a290.2 290.2 0 0 0-68.3 15.2l9.7 3.3a290 290 0 0 0 61 12.2l1.5 0.1v16.8h-0.6a309.8 309.8 0 0 1-93-22.6l-1.4-0.6-2.4 1c-3 1.5-10.7 5.2-13.5 6.8a292.7 292.7 0 0 0-155.7 249.2v0.7h-16.6v-0.7l0.6-12.2a309.9 309.9 0 0 1 167.9-253.8 310.5 310.5 0 0 1-151.9-174.6 308.2 308.2 0 0 1-16.7-91.2l-0.1-1.2h16.8zm266.5 316.2v8.6l-1 0.3a266 266 0 0 0-134.7 84.4 266.5 266.5 0 0 0-59.2 121.4l-0.4 2.3h-8.5a67 67 0 0 1-8.4-0.2 281.7 281.7 0 0 1 101.4-170.8 282.7 282.7 0 0 1 110.5-54.5l0.3-0.1zm0 96.2v18l-1.3 0.5a167.2 167.2 0 0 0-90.2 99.6l-0.9 2.6h-34.7l0.2-0.4 0.6-2.2a201.4 201.4 0 0 1 60-96.8 200.5 200.5 0 0 1 66.2-39.2z" fill="#e3e3e3"/>
      <path d="m585.8 266.6a189.2 189.2 0 0 0 113.2 125.2l1.6 0.7v12.5l-5.4-2a202 202 0 0 1-121.5-136.5c0-0.1 1.2-0.2 6-0.2h6.2zm-80.5-0.2 0.5 2.3a267.7 267.7 0 0 0 194.4 205.9l0.4 0.1v17.3l-6.4-1.6a284 284 0 0 1-205.8-223.8 227.9 227.9 0 0 1 16.9 0zm-71.2 0.7 0.1 2.8a289.7 289.7 0 0 0 95 203.7 292 292 0 0 0 73.6 49.1l2.9 1.3 2.4-1a309.7 309.7 0 0 1 92.4-22.1l0.1 8.3v8.3h-0.2l-2.3 0.3-5.3 0.5a290.2 290.2 0 0 0-62.6 14.2l-1.9 0.6 11.1 3.7a291 291 0 0 0 59.6 11.8l1.6 0.1v16.9l-0.5-0.1-3-0.3a305 305 0 0 1-90.6-22.5l-1-0.4-2.4 1.1a293.4 293.4 0 0 0-162.2 201.1 292.5 292.5 0 0 0-6.8 54.3v1h-16.7v-0.2l0.4-9.6a306.5 306.5 0 0 1 44.6-142.3 310.4 310.4 0 0 1 123.6-114.5l-2-1a310.3 310.3 0 0 1-156.5-195 307.8 307.8 0 0 1-10.1-69.8v-1h16.6zm266.5 315.9v8.6l-2.6 0.7a265 265 0 0 0-79 36 268 268 0 0 0-113 168.4l-0.7 3.2h-16.9l0.4-2.5a280.7 280.7 0 0 1 42.4-104 284.9 284.9 0 0 1 169.2-119c0.2 0 0.2 0.4 0.2 8.6zm0 96.2v17.8l-1 0.4a145.3 145.3 0 0 0-22.7 12.3 176.8 176.8 0 0 0-22.9 17.8 170.4 170.4 0 0 0-39.5 55.5c-2 4.7-3.5 8.3-5.3 14l-1 2.7-17.2 0.1h-17.3a197.3 197.3 0 0 1 13.8-37.6 201.5 201.5 0 0 1 112.9-101h0.2z" fill="#dedede"/>
      <path d="m585.8 266.6 0.5 1.8a189 189 0 0 0 111.3 123l3 1v12.6a201 201 0 0 1-127-138.5c0-0.1 1.5-0.2 6-0.2h6zm-80.5-0.1 0.5 2.6a268.2 268.2 0 0 0 194.3 205.5l0.5 0.1v17.3h-0.3a300.2 300.2 0 0 1-47.8-16.4 285.2 285.2 0 0 1-164.1-209c0-0.2 16.8-0.2 16.9 0zm-71.2 0.7 0.1 2.8a290.4 290.4 0 0 0 61.3 167.3 293.6 293.6 0 0 0 108.9 86.1l1.3 0.6 2.5-1a309.2 309.2 0 0 1 92.2-22.1l0.1 8.3v8.3h-0.3l-3.2 0.4a289.3 289.3 0 0 0-68.5 15.3l10.6 3.5a291 291 0 0 0 60 11.9l1.5 0.1v16.8h-0.5l-3-0.3a307 307 0 0 1-91.5-23l-7 3.3a293.8 293.8 0 0 0-142.5 151 290.5 290.5 0 0 0-22 101v2.4h-16.8v-1.7a319 319 0 0 1 14-82.5 412.8 412.8 0 0 1 10-27 69 69 0 0 1 1.5-3.5 188.9 188.9 0 0 1 2.8-6.3 312.7 312.7 0 0 1 71.6-98l2.4-2a282.6 282.6 0 0 0 7-6.2 211.2 211.2 0 0 1 10.1-8.2 321.2 321.2 0 0 1 49.2-31.3l-2.5-1.4a310.4 310.4 0 0 1-156.7-197.3 311.7 311.7 0 0 1-9.5-67.5v-0.7h16.8zm266.5 315.8v8.6l-0.6 0.1-3.3 1a267.7 267.7 0 0 0-191.1 205.8l-0.3 1.4h-16.9a280.7 280.7 0 0 1 70.3-141.7 290.6 290.6 0 0 1 75.5-58.5 282.4 282.4 0 0 1 65.8-25.1l0.6-0.2zm0 87.2v9l-2.3 0.9a183.9 183.9 0 0 0-107.3 119.8 415 415 0 0 1-17.4 0l2.3-8.3a200 200 0 0 1 124.5-130.2l0.2-0.1z" fill="#dcdcdc"/>
      <path d="m434 267.4 0.3 3.8a291.8 291.8 0 0 0 170.9 252.5l0.5 0.3 2.6-1a302.4 302.4 0 0 1 46.1-14.9l3-0.7 1.9 0.5a261.1 261.1 0 0 0 41.2 7.4l0.1 1v1.2a289.4 289.4 0 0 0-72 15.6 290.3 290.3 0 0 0 72 15.7v16.6h-0.5l-2.9-0.3a308.8 308.8 0 0 1-117-35 310 310 0 0 1-122.6-119.7 306.7 306.7 0 0 1-40.2-144c0-0.1 3.8-0.2 8.3-0.2h8.3zm152.4 1.4a188.4 188.4 0 0 0 111 122.4l3.1 1.3v12.5a200.2 200.2 0 0 1-126.9-138.5h12.2zm-80.5 0.5a268.5 268.5 0 0 0 192.6 204.9l2.1 0.5v8.6c0 8.1 0 8.6-0.2 8.5l-2.1-0.5a283.8 283.8 0 0 1-209.9-224.6v-0.3h16.9zm194.7 313.7v8.6l-0.5 0.1a265.4 265.4 0 0 0-60.9 24.2 268.5 268.5 0 0 0-133.2 180.8l-0.6 3.2h-16.9l1.5-8a282 282 0 0 1 97.5-160.8 282.3 282.3 0 0 1 109.5-55.8l3.5-0.9zm0 87.2v8.9l-1.1 0.5c-2.3 0.8-7.1 3-9.5 4a184.3 184.3 0 0 0-98.5 114.4l-0.6 2h-17.3l0.6-2.3a199.4 199.4 0 0 1 87.8-117.8 200 200 0 0 1 38.5-18.6z" fill="#d1d1d1"/>
      <path d="m434 267.7 0.3 4a291.2 291.2 0 0 0 262.7 276.7l3.3 0.3h0.2v8.5c0 8 0 8.4-0.2 8.3l-1.2-0.1-4.7-0.5a306.2 306.2 0 0 1-193.4-95.5 310.5 310.5 0 0 1-57-85.2 306.5 306.5 0 0 1-26.7-116.6v-1.3h16.7zm152-0.6a188.2 188.2 0 0 0 111.4 124.1l3.2 1.3v12.5l-1.2-0.4a200.6 200.6 0 0 1-125.7-138c-0.1-0.1 0.5-0.2 6-0.2h6zm-80.7-0.5 0.7 3.4a267.6 267.6 0 0 0 193 204.4l1.6 0.3v17.3l-0.6-0.2a284.3 284.3 0 0 1-211.6-225.1c0-0.2 0.4-0.2 8.4-0.2 6.6 0 8.4 0 8.5 0.2zm195.3 316.4v8.6l-1.3 0.3a266.5 266.5 0 0 0-183 167.6c-1 3-3.5 10.2-4.4 13.3a257 257 0 0 0-6 23.7l-0.6 3.3h-8.5l-8.4-0.1 0.3-1.8a282.2 282.2 0 0 1 94.4-163.3 282.8 282.8 0 0 1 117.3-60c0.2 0 0.2 0.5 0.2 8.4zm0 87.2v8.9l-1.3 0.5-3.9 1.6a184.2 184.2 0 0 0-104 117.2l-0.5 1.5h-17.3l1.4-5.2a199.8 199.8 0 0 1 125.6-133.4z" fill="#c4c4c4"/>
      <path d="m434 266.7 0.4 8.3a290.2 290.2 0 0 0 99.4 202.8 291.6 291.6 0 0 0 166.5 71h0.3v16.7l-1.1-0.1-4.9-0.4a307.3 307.3 0 0 1-211.9-117 307.1 307.1 0 0 1-65.3-180.6v-1h16.7zm266.6 403.5v8.9l-1 0.3a183.2 183.2 0 0 0-108.1 118.4l-0.7 2.1h-17.2l0.7-2.7a199.3 199.3 0 0 1 65.2-101.1 200.7 200.7 0 0 1 60-34.4l1.1-0.4z" fill="#b7b7b7"/>
      <path d="m434 266.8 0.4 8.4a290 290 0 0 0 101 204 291.1 291.1 0 0 0 164.7 69.5l0.5 0.1v16.6h-0.4l-8-0.7a306.4 306.4 0 0 1-207.3-114.1 308.1 308.1 0 0 1-67.5-183.4v-0.9h16.7zm266.6 403.4v8.9l-2 0.8a184 184 0 0 0-107 117.4l-0.8 2.5h-17.2l0.4-1.1a200 200 0 0 1 126.3-137.3l0.3-0.1z" fill="#a8a8a8"/>
      <path d="m434 267.3 0.5 10a290.2 290.2 0 0 0 45.2 137.7 294 294 0 0 0 130.5 111 288.6 288.6 0 0 0 90.2 22.8c0.2 0 0.2 0.5 0.2 8.3v8.3h-0.3l-8-0.7a306.9 306.9 0 0 1-146-55.8 310.2 310.2 0 0 1-105.2-132 306.9 306.9 0 0 1-23.7-109.9v-0.6h16.7z" fill="#8a8a8a"/>
      <path d="m434 267.6a290.3 290.3 0 0 0 36.8 132.4 292.9 292.9 0 0 0 157.4 133.2l-2 0.7a303.4 303.4 0 0 0-20.4 8.3l-2.1-0.9a309.4 309.4 0 0 1-186.1-273.2l-0.1-1.7h16.5zm266.6 290.6c0 6.5 0 7.2-0.2 7.2a349.8 349.8 0 0 1-41.8-6.3l-1-0.2 0.6-0.2a258.7 258.7 0 0 1 41.8-7.6h0.6z" fill="#747474"/>
      <path d="m607 524.7a294.5 294.5 0 0 0 21 8.5l-1 0.4a305.2 305.2 0 0 0-21.3 8.6l-0.6-0.2-2.6-1.2c-4.6-2-10-4.5-14.1-6.6l-2.2-1 2.8-1.5c5.8-2.9 16.1-7.6 16.6-7.6l1.5 0.6z" fill="#6c6c6c"/>
    </g>
    <path d="m166.5 266.3v534h534v-534h-500zm34 33.6h466v466.9h-466z" fill-opacity=".31"/>
  </g></svg>
