<?xml version="1.0" encoding="UTF-8"?>
<svg clip-rule="evenodd" fill-rule="evenodd" stroke-linejoin="round" stroke-miterlimit="2" version="1.1" viewBox="0 0 1067 1067" xml:space="preserve" xmlns="http://www.w3.org/2000/svg">
  <g transform="translate(-171.8 -182.4) scale(1.4739)">
    <rect x="166.49" y="266.32" width="534.11" height="533.64" fill-opacity=".5"/>
    <path d="M132.5 234.3v599h601v-599h-567zm34 32h534V800h-534z" fill="#c9c9c9"/>
    <g>
      <path d="M263.6 799.9h-17.4l-.3-1.1a158.7 158.7 0 0 0-31-52.5 171.6 171.6 0 0 0-28-24.5 204.3 204.3 0 0 0-18.4-10.8l-2-1v-48.8l.3.1 2 .8a200.5 200.5 0 0 1 124.3 137.7c.1.1-.2.2-6 .1h-23.5zm80.7 0h-17v-.5a239.2 239.2 0 0 0-16-47.5 213.3 213.3 0 0 0-12.9-23.9 234.8 234.8 0 0 0-130.8-101.5l-1.1-.3v-26l.1-25.8 8.1 2a281.7 281.7 0 0 1 142.5 92.2 284.2 284.2 0 0 1 61 131.2c0 .1-.4.2-8.5.1h-25.4zm54.7 0v-2.2a257 257 0 0 0-81.7-178.4c-30-28-65.7-48.2-104.5-59.4l-3.2-1-2.1.5a308.2 308.2 0 0 1-40.5 6l-.5.1v-64.8l3.6.4a304.6 304.6 0 0 1 91 22.8 293 293 0 0 0 167.7-220.6 294.1 294.1 0 0 0 3.4-36.5v-.5H449v1.2l-.2 3.9a307.2 307.2 0 0 1-117.3 229.2 309 309 0 0 1-49.4 31.8l-1.3.7 1.7 1a309.6 309.6 0 0 1 166.4 264.3v1.6H424c-19.8 0-25 0-25-.2zm-232.5-334 .1-25.8 3.3-1A232 232 0 0 0 305 326.5a255.6 255.6 0 0 0 13-29 239.1 239.1 0 0 0 9.2-30.9v-.4h25.5c24.2 0 25.4 0 25.4.2l-.4 2a284 284 0 0 1-211.2 223.4l-.1-26zm0-88v-27.1l2-1.1a150.1 150.1 0 0 0 72.5-83.2c.1-.2 1.4-.2 26.2-.2 24.7 0 26 0 26 .2l-.5 1.6A200 200 0 0 1 166.6 405l-.1-27.1zm0-92.5v-19h39.8c0 .2-2 3.2-3.3 5.2a103 103 0 0 1-36.4 32.8l-.1-19z" fill="#f8f8f8"/>
      <path d="m281 799.8-.6-2a187.8 187.8 0 0 0-112-123.2l-2-.8v-12.5h.4l3.4 1.3A199.4 199.4 0 0 1 287 780.3c2 5.5 4.5 13 5.8 18.3l.4 1.4H287c-4.8 0-6.1 0-6.2-.2zm80.2.1-.6-3a266.5 266.5 0 0 0-194-205.2l-.1-8.7.1-8.6 2.5.6A282.8 282.8 0 0 1 378 799l.1.9h-17zm37.8-.1v-1.2l-.5-9.2a258.4 258.4 0 0 0-186.8-229.9l-2.1-.6-2.2.5a305.9 305.9 0 0 1-40.5 6l-.4.1v-64.8a311.9 311.9 0 0 1 94.7 23.2l5.8-2.7a292.3 292.3 0 0 0 165.2-254.1v-.8H449v1.1a308.2 308.2 0 0 1-168.1 265.7l2 1.1A310.1 310.1 0 0 1 424.3 687 307 307 0 0 1 449 798.4v1.6h-25c-22.6 0-25 0-25-.2zM166.5 483.3v-8.7l1.6-.4a264.1 264.1 0 0 0 136-87 265.3 265.3 0 0 0 57.2-120.9h16.9l-.5 2.7a283.2 283.2 0 0 1-211.1 223l-.1-8.6zm0-105.4v-27l1.3-.8a152.5 152.5 0 0 0 52-44 151.6 151.6 0 0 0 20.9-38.7l.3-1h9.9a5931.4 5931.4 0 0 1 42.3 0l-.3 1.1A201 201 0 0 1 166.6 405l-.1-27.1zm0-92.5v-19h39.8a102.8 102.8 0 0 1-39.4 37.8l-.4.2z" fill="#f5f5f5"/>
      <path d="M280.8 799.3a188.7 188.7 0 0 0-114-125.4h-.3v-6.3l.1-6.3a184 184 0 0 1 27.9 12.4 202.6 202.6 0 0 1 56 45 199.7 199.7 0 0 1 42.4 80l.3 1.3H281zm80.3 0-.3-1.6a265.7 265.7 0 0 0-38.6-94.2A267 267 0 0 0 168 592l-1.6-.4V583l.1-8.6 2 .5A281.6 281.6 0 0 1 309 659.4a284.4 284.4 0 0 1 69 140.3c0 .3 0 .3-8.4.3h-8.5zm54.6.6h-16.6v-1.1l-.2-3.5A258.2 258.2 0 0 0 210.5 559l-.9-.2-2.7.6a301.8 301.8 0 0 1-40 6h-.4v-64.8h.6l3 .4a306.8 306.8 0 0 1 89.6 22.3l1.5.6 2.8-1.3a292.6 292.6 0 0 0 168.2-255.2v-1.2H449v1.3l-.5 10.5a308 308 0 0 1-165.8 254l-1.9 1 1.5.8A309.5 309.5 0 0 1 449 798.7v1.3h-8.3l-25-.1zM166.5 483.2l.1-8.6 3.5-1a265.8 265.8 0 0 0 191.1-207.2h17l-.3 1.3a283.3 283.3 0 0 1-211.4 224.2v-8.7zm0-96.1v-18l2.4-1a167.6 167.6 0 0 0 88.8-99.3l.9-2.5h34.6l-.4 1.4A201.2 201.2 0 0 1 172.1 403l-5.5 2v-18zm0-101.7v-19h19.8c18 0 19.9 0 19.8.2a103 103 0 0 1-39.2 37.6l-.4.2z" fill="#f0f0f0"/>
      <path d="M280.8 799.3a184.9 184.9 0 0 0-24.7-53.8 189.7 189.7 0 0 0-88-71l-1.6-.7v-6.2l.1-6.3A200.8 200.8 0 0 1 293 799l.3 1H281zm80-1.9A265.8 265.8 0 0 0 264 640a264.9 264.9 0 0 0-96-48l-1.5-.4V583l.1-8.6 6.5 1.6a281 281 0 0 1 149.3 99.1A283 283 0 0 1 378 799.7c0 .2-.1.3-8.4.3h-8.5zm71.4 2.2V797a290.9 290.9 0 0 0-104.5-212.9 291.6 291.6 0 0 0-64.5-40.9l-2-1-1 .5a317.6 317.6 0 0 1-55 17.2 305.9 305.9 0 0 1-38.3 5.5h-.4v-64.7h.6l3 .4a305.5 305.5 0 0 1 88.2 21.7l2.9 1.2 1.4-.6a292 292 0 0 0 169.7-256.8c0-.3 0-.3 8.3-.3h8.3v2.5l-.7 11.5a307.8 307.8 0 0 1-164 251l-3.5 1.8 1.4.7 7.5 4A309.6 309.6 0 0 1 449 799v1h-16.6zM166.5 483.3v-8.7l1.4-.3 4.4-1.2a267.8 267.8 0 0 0 188.4-204.2l.5-2.6h8.5c7.7 0 8.4 0 8.4.2l-2.4 12.1A282.7 282.7 0 0 1 239 463.2a280.8 280.8 0 0 1-72.4 28.7v-8.6zm0-96.2v-18l1.7-.7a168 168 0 0 0 89.6-99.8l.8-2.3h34.6l-.3 1.2A200.4 200.4 0 0 1 166.6 405l-.1-18z" fill="#eee"/>
      <path d="m280.9 799.5-.6-2.1a188.4 188.4 0 0 0-112.8-123.2l-1-.4v-12.5a199.4 199.4 0 0 1 83.5 56.9 199.8 199.8 0 0 1 43.1 81.6c0 .1-1.1.2-6 .2H281zm79.8-2a267.3 267.3 0 0 0-193.9-205.7l-.3-.2v-17.2l7.2 1.8a283.2 283.2 0 0 1 204.4 223.6c0 .1-.8.2-8.4.2h-8.5zm71.5 1.9v-2.6a290.6 290.6 0 0 0-109.3-216.6 291.3 291.3 0 0 0-60-37.1l-1.7-.8-1.6.6a307.3 307.3 0 0 1-92.8 22.5h-.3v-16.7h.3l3.6-.4a288.6 288.6 0 0 0 68.1-15.2l-9.7-3.2a288.5 288.5 0 0 0-60.8-12.2l-1.5-.1v-16.9l.6.1a308 308 0 0 1 92.7 22.6l1.4.6 2.4-1 13.5-6.8A292 292 0 0 0 432.3 267v-.7h16.6v.7l-.6 12.2A309.4 309.4 0 0 1 280.9 533a309.8 309.8 0 0 1 151.4 174.6 309 309 0 0 1 16.6 91.2v1.2h-16.6zM166.5 483.3v-8.6l1-.3a264.7 264.7 0 0 0 134.3-84.5 266.7 266.7 0 0 0 59-121.3l.4-2.3h8.5c6.8 0 8.4 0 8.4.2A282.2 282.2 0 0 1 277 437.3a281.6 281.6 0 0 1-110.2 54.5h-.3zm0-96.2v-18l1.3-.5a167 167 0 0 0 90-99.6l.8-2.6h34.6l-.1.4-.6 2.2a200.9 200.9 0 0 1-126 136v-18z" fill="#e3e3e3"/>
      <path d="M281 799.7a189.5 189.5 0 0 0-112.8-125.2l-1.7-.7v-12.5l5.5 2a201.6 201.6 0 0 1 121 136.5c0 .1-1.2.2-6 .2h-6zm80.3.2-.5-2.3A267.2 267.2 0 0 0 167 591.7l-.5-.1v-17.2l6.4 1.6A283.2 283.2 0 0 1 378 799.8a226.6 226.6 0 0 1-16.8 0zm71-.7-.2-2.8a290.4 290.4 0 0 0-94.6-203.7c-21.9-20-47-36.8-73.5-49.1l-2.8-1.3-2.5 1a308.2 308.2 0 0 1-92 22.1c-.2 0-.2-1.7-.2-8.3v-8.3h.2l2.2-.3c1.1 0 3.5-.3 5.4-.5 21.1-2.4 42.4-7.2 62.4-14.2l1.8-.6-.5-.2a289.4 289.4 0 0 0-70-15.3l-1.5-.1v-16.9h.5l3 .4a303.4 303.4 0 0 1 90.3 22.5l1 .4 2.4-1.1a292.7 292.7 0 0 0 168.5-255.4v-1H449v.2l-.5 9.5A307.3 307.3 0 0 1 404 418.5a310 310 0 0 1-123.2 114.6l1.9 1a309.9 309.9 0 0 1 156.1 195 308.6 308.6 0 0 1 10.1 69.8v1h-16.6zm-265.8-316v-8.5l2.5-.7a263.8 263.8 0 0 0 79-36 267.9 267.9 0 0 0 112.6-168.4l.7-3.2H378l-.4 2.4A281.3 281.3 0 0 1 335.4 373a284.4 284.4 0 0 1-168.7 118.8c-.2 0-.2-.3-.2-8.5zm0-96.1v-18l1-.3a144.7 144.7 0 0 0 22.7-12.3 176.3 176.3 0 0 0 22.7-17.8 170.3 170.3 0 0 0 44.8-69.4l1-2.8 17.1-.1h17.3l-1 4A201.4 201.4 0 0 1 166.7 405h-.2z" fill="#dedede"/>
      <path d="m281 799.7-.6-1.8a188.9 188.9 0 0 0-111-123l-2.9-1.1v-12.5a200.5 200.5 0 0 1 126.6 138.5c0 .1-1.5.2-6 .2h-6zm80.3.1-.6-2.6A267.7 267.7 0 0 0 167 591.7l-.4-.1v-17.2h.3a298.7 298.7 0 0 1 47.7 16.4 284.8 284.8 0 0 1 163.6 209c0 .2-16.8.2-16.8 0zm71-.7-.2-2.8A290.8 290.8 0 0 0 371 629a293 293 0 0 0-108.5-86l-1.4-.7-2.5 1a307.7 307.7 0 0 1-92 22.2v-16.6h.3l3.2-.4a287.7 287.7 0 0 0 68.3-15.3 289.4 289.4 0 0 0-70.4-15.4l-1.5-.1v-16.9l.5.1 2.9.3a305.4 305.4 0 0 1 91.4 23l6.8-3.3a292.8 292.8 0 0 0 162-226.4 292 292 0 0 0 2.1-25.5l.1-2.5H449v1.7a320 320 0 0 1-14 82.4 413.6 413.6 0 0 1-9.9 27 69.1 69.1 0 0 1-1.6 3.6 189.2 189.2 0 0 1-2.7 6.3 313 313 0 0 1-71.5 98l-2.3 2a282 282 0 0 0-7 6.2 210.7 210.7 0 0 1-10.1 8.2 320.4 320.4 0 0 1-49 31.3l2.5 1.4a309.8 309.8 0 0 1 164 240.4 309.9 309.9 0 0 1 1.6 24.4v.7h-16.6zM166.4 483.3v-8.6l.5-.2a265.3 265.3 0 0 0 85-39.3A267.6 267.6 0 0 0 361 268l.3-1.5H378A281.4 281.4 0 0 1 288 428a283.8 283.8 0 0 1-120.7 63.8l-.7.2zm0-87.2v-9l2.3-.9a183.8 183.8 0 0 0 107-119.8 412.6 412.6 0 0 1 17.3 0A200 200 0 0 1 166.7 405l-.2.1z" fill="#dcdcdc"/>
      <path d="m432.2 798.9-.1-3.9a292 292 0 0 0-170.4-252.5l-.6-.3-2.6 1.1a325 325 0 0 1-46 14.9l-3 .7-1.8-.5a259.7 259.7 0 0 0-41.1-7.4l-.1-1.1v-1.1a287.8 287.8 0 0 0 71.9-15.6 288.8 288.8 0 0 0-71.8-15.7l-.1-8.4v-8.4h.4l3 .4a307.1 307.1 0 0 1 116.6 35A309.1 309.1 0 0 1 448.9 800h-16.6zm-151.9-1.4A188.6 188.6 0 0 0 169.7 675l-3.2-1.2v-12.5a199.2 199.2 0 0 1 126.6 138.5h-12zm80.4-.5a266 266 0 0 0-129-178.8 262.3 262.3 0 0 0-63.1-26l-2.1-.7V583c0-8.2 0-8.6.2-8.6l2.1.6a282.8 282.8 0 0 1 209.3 224.6v.2h-16.8zM166.5 483.3v-8.6l.4-.1a264.2 264.2 0 0 0 60.8-24.2 268.1 268.1 0 0 0 133-180.8l.6-3.2H378l-1.5 8a282.5 282.5 0 0 1-97.2 160.8A281.2 281.2 0 0 1 170 491l-3.5.9zm0-87.2v-9l1.1-.4 9.4-4a183.9 183.9 0 0 0 98.3-114.3l.6-2h17.2l-.6 2.3a199.7 199.7 0 0 1-126 136.3v-9z" fill="#d1d1d1"/>
      <path d="m432.2 798.5-.1-3.9a292 292 0 0 0-208.3-266.3 289 289 0 0 0-57-10.8h-.3V509c0-8 0-8.4.2-8.3l1.2.1 4.7.4A304.7 304.7 0 0 1 365.5 597a310.5 310.5 0 0 1 56.7 85.2 307.2 307.2 0 0 1 26.7 116.6v1.3h-16.6zm-151.4.7-2.6-8.7a188.3 188.3 0 0 0-108.4-115.4l-3.3-1.4v-12.4l1.2.4a199.9 199.9 0 0 1 125.4 138l-6 .1H281zm80.5.5-.7-3.4A266.9 266.9 0 0 0 168 592l-1.6-.4v-17.1l.5.2a283.5 283.5 0 0 1 211 225.1c.1.1-.3.1-8.3.1a75 75 0 0 1-8.4 0zM166.5 483.2v-8.5l1.3-.3A265.5 265.5 0 0 0 295 397.7a267.3 267.3 0 0 0 65.6-128l.7-3.2h8.4l8.4.1-.4 1.7a282.6 282.6 0 0 1-94.1 163.3 281.7 281.7 0 0 1-117 60.2l-.1-8.6zm0-87.1v-8.9l1.3-.5 3.9-1.6a183.7 183.7 0 0 0 103.8-117.2l.4-1.5h17.2A200 200 0 0 1 166.5 405v-9z" fill="#c4c4c4"/>
      <path d="m432.3 799.6-.4-8.3a290.8 290.8 0 0 0-99.1-202.8 290.5 290.5 0 0 0-166-71h-.3v-16.7h1.1l4.8.5a305.7 305.7 0 0 1 211.3 117A307.6 307.6 0 0 1 449 798.9v1h-16.6zM166.5 396.1v-8.9l1-.4a182.4 182.4 0 0 0 81.2-63.8c11.8-16.5 21-35.3 26.6-54.5l.6-2.1h17.2l-.7 2.6a199.6 199.6 0 0 1-124.7 135.6l-1.2.4z" fill="#b7b7b7"/>
      <path d="m432.3 799.4-.4-8.3a290.6 290.6 0 0 0-100.8-204A290.1 290.1 0 0 0 167 517.4h-.5v-16.6h.4l8 .8a305.1 305.1 0 0 1 206.7 114.1A308.4 308.4 0 0 1 449 799.1v.9h-16.6zM166.5 396.1v-8.9l2-.8A183.3 183.3 0 0 0 275.3 269l.7-2.4h17.2l-.3 1.1a200.1 200.1 0 0 1-126 137.3h-.3z" fill="#a8a8a8"/>
      <path d="m432.3 799-.5-10a290.8 290.8 0 0 0-118.6-216.3 288 288 0 0 0-146.5-55.2c-.2 0-.2-.5-.2-8.3v-8.4h.3l8 .8a305.2 305.2 0 0 1 145.5 55.8 310 310 0 0 1 105 132 307.6 307.6 0 0 1 23.6 109.9v.5h-16.6z" fill="#8a8a8a"/>
      <path d="M432.3 798.7a290.9 290.9 0 0 0-36.6-132.4A292.3 292.3 0 0 0 238.8 533l2-.8a302 302 0 0 0 20.3-8.2l2.1.9a308.3 308.3 0 0 1 118 90.2 307.5 307.5 0 0 1 67.6 183v1.6h-16.5zM166.5 508.1c0-6.5 0-7.3.2-7.3a347.8 347.8 0 0 1 41.7 6.4l1 .2-.7.2a257.3 257.3 0 0 1-41.7 7.6h-.5z" fill="#747474"/>
      <path d="M259.7 541.6A293.2 293.2 0 0 0 239 533l1-.4a303.8 303.8 0 0 0 21.3-8.6l.5.2 2.6 1.1c4.6 2 10 4.5 14 6.6l2.3 1.2-2.9 1.4c-5.7 2.9-16 7.6-16.5 7.5l-1.5-.5z" fill="#6c6c6c"/>
    
    
      <path d="M603.2 266.4h17.4l.4 1a158.5 158.5 0 0 0 31 52.6 171.9 171.9 0 0 0 28 24.4 205 205 0 0 0 18.5 10.9l2 1V405l-.3-.1-2-.8a201 201 0 0 1-124.7-137.7 13054.6 13054.6 0 0 0 29.6-.1zm-80.9 0h17l.1.5a238.6 238.6 0 0 0 16 47.5 213 213 0 0 0 12.9 23.9 234.9 234.9 0 0 0 131.2 101.5l1.1.3v26l-.1 25.8-8.2-2a282.8 282.8 0 0 1-142.8-92.2 284 284 0 0 1-61.2-131.2 23076.5 23076.5 0 0 0 34-.1zm-55 0 .2 2.2a256.6 256.6 0 0 0 82 178.4c30 28 65.7 48.2 104.6 59.4l3.3 1 2.1-.5a310 310 0 0 1 40.6-6l.5-.1v64.7l-3.6-.3a306.2 306.2 0 0 1-91.4-22.8A293.4 293.4 0 0 0 437.4 763a293.3 293.3 0 0 0-3.3 36.5v.5h-16.8v-1.2l.2-4A306.6 306.6 0 0 1 456 658.6a310.4 310.4 0 0 1 128.8-124.7l1.3-.6-1.7-1a310.1 310.1 0 0 1-120-110.4 306.9 306.9 0 0 1-47-153.9v-1.6h25c20 0 25 0 25 .2zm233.3 333.9-.1 26-3.3 1a233 233 0 0 0-145.7 133.6l-3 7.8a238.6 238.6 0 0 0-9.1 30.9l-.1.4h-25.6c-24.2 0-25.5 0-25.4-.2l.4-2a283.8 283.8 0 0 1 211.8-223.4l.1 25.9zm0 88.1v27.1l-2.1 1.1a150.6 150.6 0 0 0-72.6 83.2c-.1.2-1.5.2-26.3.2s-26.1 0-26-.2l.4-1.7a199.8 199.8 0 0 1 126.5-136.8l.1 27.1zm0 92.5v19h-40a103.2 103.2 0 0 1 39.8-38c.2 0 .2 8.5.2 19z" fill="#f8f8f8"/>
      <path d="m585.8 266.5.6 2a189.2 189.2 0 0 0 112.2 123.2l2 .7V405h-.3l-3.4-1.3a200 200 0 0 1-123-136l-.4-1.4h6.2c4.8 0 6.1 0 6.1.2zm-80.5-.1.6 3a266.2 266.2 0 0 0 85.4 147.3 266.6 266.6 0 0 0 109.2 57.9l.1 8.6-.1 8.7-2.5-.6a283.7 283.7 0 0 1-209.6-224.1l-.1-.9h17zm-38 .1.2 1.1.4 9.3a257.7 257.7 0 0 0 98.6 184.7 259.3 259.3 0 0 0 88.8 45.2l2 .6 2.3-.5a307.6 307.6 0 0 1 40.6-6l.4-.1v64.7a313.7 313.7 0 0 1-95-23.1l-5.8 2.6a293.3 293.3 0 0 0-159.5 202.6 293.3 293.3 0 0 0-6.2 51.6v.8h-16.8v-1.1a307.6 307.6 0 0 1 141.8-250.3 311 311 0 0 1 26.9-15.4l-2-1.1a310.9 310.9 0 0 1-142-152.8A306.4 306.4 0 0 1 417.4 268l-.1-1.6h25c22.7 0 25 0 25 .2zM700.7 583v8.7l-1.6.4a265.3 265.3 0 0 0-136.3 87A264.8 264.8 0 0 0 505.3 800h-17l.5-2.8a282.9 282.9 0 0 1 92-160.7 284.4 284.4 0 0 1 119.7-62.1l.1 8.6zm0 105.4v27l-1.3.7a153 153 0 0 0-52.2 44.1 151.5 151.5 0 0 0-21 38.6l-.3 1H616a5965.8 5965.8 0 0 1-42.4 0l.2-1a201 201 0 0 1 126.7-137.5l.1 27zm0 92.5v19h-40a102.8 102.8 0 0 1 39.5-37.8l.5-.3z" fill="#f5f5f5"/>
      <path d="M586 267a188.5 188.5 0 0 0 114.4 125.3l.2.1v6.3l-.1 6.3a184.8 184.8 0 0 1-28-12.4 203.3 203.3 0 0 1-56.2-45 199.6 199.6 0 0 1-42.5-80l-.3-1.3h12.2zm-80.6-.1.4 1.7a265.4 265.4 0 0 0 38.7 94.2A267.7 267.7 0 0 0 699 474.3l1.5.4v17.2l-2-.5a282.8 282.8 0 0 1-141-84.5 284.3 284.3 0 0 1-69.1-140.4c0-.2 0-.2 8.4-.2h8.5zm-54.7-.5h16.6v1.1l.3 3.5a257.5 257.5 0 0 0 113.7 201.4 258 258 0 0 0 75.2 34.7l.9.3 2.7-.6a303.5 303.5 0 0 1 40-6h.5v64.8l-.6-.1-3-.3a308.5 308.5 0 0 1-90-22.2l-1.5-.6-2.8 1.3a293.4 293.4 0 0 0-97 73A290.8 290.8 0 0 0 434 798.9v1.2h-16.7v-1.3l.5-10.5a307.5 307.5 0 0 1 96.3-204.5c21-19.7 44.4-36.3 70-49.5l1.8-1-1.4-.8A310 310 0 0 1 456 408a306.7 306.7 0 0 1-38.7-140.4l-.1-1.3h8.3l25 .1zm249.9 316.7-.1 8.6-3.5.9a267 267 0 0 0-191.7 207.3h-17l.2-1.3a283 283 0 0 1 88.6-158.8 283 283 0 0 1 123.4-65.4l.1 8.7zm0 96.1v18l-2.4 1a168.2 168.2 0 0 0-89.1 99.3l-.8 2.5h-34.8l.4-1.5a200.9 200.9 0 0 1 126.6-137.2v18zm0 101.6v19h-20l-19.8-.1 3.4-5.3a103.1 103.1 0 0 1 36-32.3l.4-.3z" fill="#f0f0f0"/>
      <path d="M586 267a184.6 184.6 0 0 0 24.7 53.8 190 190 0 0 0 88.3 71l1.6.7v6.2l-.1 6.3a201.1 201.1 0 0 1-126.7-137.7l-.3-1h12.3zm-80.2 1.9a265.3 265.3 0 0 0 97 157.4 266 266 0 0 0 96.2 48l1.5.4v17.2l-6.5-1.7a282.3 282.3 0 0 1-149.7-99 282.7 282.7 0 0 1-56-124.7c0-.2.2-.2 8.5-.2h8.5zm-71.7-2.2.1 2.6A290.4 290.4 0 0 0 539 482.2a292.6 292.6 0 0 0 64.6 40.9l2 .9 1-.4a319.1 319.1 0 0 1 55.3-17.2 307.6 307.6 0 0 1 38.3-5.5h.3v64.7l-.5-.1-3-.3a307.1 307.1 0 0 1-88.4-21.7l-3-1.2-1.4.6A292.8 292.8 0 0 0 434 799.7c0 .3 0 .3-8.3.3h-8.3v-2.5l.6-11.5a307.3 307.3 0 0 1 107-212 308.8 308.8 0 0 1 57.5-39l3.5-1.8-1.3-.7-7.6-4a310.2 310.2 0 0 1-137.9-156 307 307 0 0 1-21.9-105.2v-1H434zM700.6 583v8.6l-1.4.4-4.4 1.2a268.2 268.2 0 0 0-189 204.2l-.5 2.6h-8.5c-7.7 0-8.4 0-8.4-.2A282.2 282.2 0 0 1 572 644.7a285.4 285.4 0 0 1 128.5-70.3l.1 8.6zm0 96.2v18l-1.7.7a168.5 168.5 0 0 0-89.9 99.8l-.7 2.3h-34.8l.3-1.2a200.3 200.3 0 0 1 126.7-137.5l.1 18z" fill="#eee"/>
      <path d="m585.9 266.8.6 2a188.1 188.1 0 0 0 113.1 123.3l1 .4V405a200 200 0 0 1-126.9-138.5c0-.1 1-.2 6-.2h6zm-80.1 2a267.3 267.3 0 0 0 194.5 205.7l.3.2V492l-7.3-1.8a283.2 283.2 0 0 1-131-78.1 283 283 0 0 1-74-145.5c0-.2.9-.2 8.5-.2h8.5zm-71.7-2 .1 2.7a290 290 0 0 0 109.6 216.6 292.3 292.3 0 0 0 60.2 37.1l1.7.8 1.5-.6a308.8 308.8 0 0 1 93.1-22.5h.3v16.7h-.4l-3.5.3a290.2 290.2 0 0 0-68.3 15.2l9.7 3.3a290 290 0 0 0 61 12.2l1.5.1v16.8h-.6a309.8 309.8 0 0 1-93-22.6l-1.4-.6-2.4 1c-3 1.5-10.7 5.2-13.5 6.8A292.7 292.7 0 0 0 434 799.3v.7h-16.6v-.7l.6-12.2a309.9 309.9 0 0 1 167.9-253.8A310.5 310.5 0 0 1 434 358.7a308.2 308.2 0 0 1-16.7-91.2l-.1-1.2H434zM700.6 583v8.6l-1 .3a266 266 0 0 0-134.7 84.4 266.5 266.5 0 0 0-59.2 121.4l-.4 2.3h-8.5a67 67 0 0 1-8.4-.2A281.7 281.7 0 0 1 589.8 629a282.7 282.7 0 0 1 110.5-54.5l.3-.1zm0 96.2v18l-1.3.5a167.2 167.2 0 0 0-90.2 99.6l-.9 2.6h-34.7l.2-.4.6-2.2a201.4 201.4 0 0 1 60-96.8 200.5 200.5 0 0 1 66.2-39.2l.1 17.9z" fill="#e3e3e3"/>
      <path d="M585.8 266.6A189.2 189.2 0 0 0 699 391.8l1.6.7V405l-5.4-2a202 202 0 0 1-121.5-136.5c0-.1 1.2-.2 6-.2h6.2zm-80.5-.2.5 2.3a267.7 267.7 0 0 0 194.4 205.9l.4.1V492l-6.4-1.6a284 284 0 0 1-205.8-223.8 227.9 227.9 0 0 1 16.9 0zm-71.2.7.1 2.8a289.7 289.7 0 0 0 95 203.7 292 292 0 0 0 73.6 49.1l2.9 1.3 2.4-1a309.7 309.7 0 0 1 92.4-22.1l.1 8.3v8.3h-.2l-2.3.3-5.3.5a290.2 290.2 0 0 0-62.6 14.2l-1.9.6.6.2 10.5 3.5a291 291 0 0 0 59.6 11.8l1.6.1v16.9l-.5-.1-3-.3a305 305 0 0 1-90.6-22.5l-1-.4-2.4 1.1a293.4 293.4 0 0 0-162.2 201.1 292.5 292.5 0 0 0-6.8 54.3v1h-16.7v-.2l.4-9.6a306.5 306.5 0 0 1 44.6-142.3A310.4 310.4 0 0 1 586 533.2l-2-1a310.3 310.3 0 0 1-156.5-195 307.8 307.8 0 0 1-10.1-69.8v-1H434zM700.6 583v8.6l-2.6.7a265 265 0 0 0-79 36 268 268 0 0 0-113 168.4l-.7 3.2h-16.9l.4-2.5a280.7 280.7 0 0 1 42.4-104 284.9 284.9 0 0 1 169.2-119c.2 0 .2.4.2 8.6zm0 96.2V697l-1 .4a145.3 145.3 0 0 0-22.7 12.3 176.8 176.8 0 0 0-22.9 17.8 170.4 170.4 0 0 0-39.5 55.5c-2 4.7-3.5 8.3-5.3 14l-1 2.7-17.2.1h-17.3a197.3 197.3 0 0 1 13.8-37.6 201.5 201.5 0 0 1 112.9-101h.2z" fill="#dedede"/>
      <path d="m585.8 266.6.5 1.8a189 189 0 0 0 111.3 123l3 1V405a201 201 0 0 1-127-138.5c0-.1 1.5-.2 6-.2h6zm-80.5-.1.5 2.6a268.2 268.2 0 0 0 194.3 205.5l.5.1V492h-.3a300.2 300.2 0 0 1-47.8-16.4 285.2 285.2 0 0 1-164.1-209c0-.2 16.8-.2 16.9 0zm-71.2.7.1 2.8a290.4 290.4 0 0 0 61.3 167.3 293.6 293.6 0 0 0 108.9 86.1l1.3.6 2.5-1a309.2 309.2 0 0 1 92.2-22.1l.1 8.3v8.3h-.3l-3.2.4a289.3 289.3 0 0 0-68.5 15.3l10.6 3.5a291 291 0 0 0 60 11.9l1.5.1v16.8h-.5l-3-.3a307 307 0 0 1-91.5-23l-7 3.3a293.8 293.8 0 0 0-142.5 151 290.5 290.5 0 0 0-22 101v2.4h-16.8v-1.7a319 319 0 0 1 14-82.5 412.8 412.8 0 0 1 10-27 69 69 0 0 1 1.5-3.5 188.9 188.9 0 0 1 2.8-6.3 312.7 312.7 0 0 1 71.6-98l2.4-2a282.6 282.6 0 0 0 7-6.2 211.2 211.2 0 0 1 10.1-8.2 321.2 321.2 0 0 1 49.2-31.3l-2.5-1.4a310.4 310.4 0 0 1-156.7-197.3 311.7 311.7 0 0 1-9.5-67.5v-.7H434zM700.6 583v8.6l-.6.1-3.3 1a267.7 267.7 0 0 0-191.1 205.8l-.3 1.4h-16.9a280.7 280.7 0 0 1 70.3-141.7 290.6 290.6 0 0 1 75.5-58.5 282.4 282.4 0 0 1 65.8-25.1l.6-.2zm0 87.2v9l-2.3.9A183.9 183.9 0 0 0 591 799.9a415 415 0 0 1-17.4 0l2.3-8.3a200 200 0 0 1 124.5-130.2l.2-.1z" fill="#dcdcdc"/>
      <path d="m434 267.4.3 3.8a291.8 291.8 0 0 0 170.9 252.5l.5.3 2.6-1a302.4 302.4 0 0 1 46.1-14.9l3-.7 1.9.5a261.1 261.1 0 0 0 41.2 7.4l.1 1v1.2a289.4 289.4 0 0 0-72 15.6 290.3 290.3 0 0 0 72 15.7v16.6h-.5l-2.9-.3a308.8 308.8 0 0 1-117-35 310 310 0 0 1-122.6-119.7 306.7 306.7 0 0 1-40.2-144c0-.1 3.8-.2 8.3-.2h8.3zm152.4 1.4a188.4 188.4 0 0 0 111 122.4l3.1 1.3V405a200.2 200.2 0 0 1-126.9-138.5h12.2zm-80.5.5a268.5 268.5 0 0 0 192.6 204.9l2.1.5v8.6c0 8.1 0 8.6-.2 8.5l-2.1-.5a283.8 283.8 0 0 1-209.9-224.6v-.3h16.9zM700.6 583v8.6l-.5.1a265.4 265.4 0 0 0-60.9 24.2A268.5 268.5 0 0 0 506 796.7l-.6 3.2h-16.9l1.5-8a282 282 0 0 1 97.5-160.8A282.3 282.3 0 0 1 697 575.3l3.5-.9zm0 87.2v8.9l-1.1.5c-2.3.8-7.1 3-9.5 4A184.3 184.3 0 0 0 591.5 798l-.6 2h-17.3l.6-2.3A199.4 199.4 0 0 1 662 679.9a200 200 0 0 1 38.5-18.6l.1 8.9z" fill="#d1d1d1"/>
      <path d="m434 267.7.3 4A291.2 291.2 0 0 0 697 548.4l3.3.3h.2v8.5c0 8 0 8.4-.2 8.3l-1.2-.1-4.7-.5A306.2 306.2 0 0 1 501 469.4a310.5 310.5 0 0 1-57-85.2 306.5 306.5 0 0 1-26.7-116.6v-1.3H434zm152-.6a188.2 188.2 0 0 0 111.4 124.1l3.2 1.3V405l-1.2-.4a200.6 200.6 0 0 1-125.7-138c-.1-.1.5-.2 6-.2h6zm-80.7-.5.7 3.4a267.6 267.6 0 0 0 193 204.4l1.6.3V492l-.6-.2a284.3 284.3 0 0 1-211.6-225.1c0-.2.4-.2 8.4-.2 6.6 0 8.4 0 8.5.2zM700.6 583v8.6l-1.3.3a266.5 266.5 0 0 0-183 167.6c-1 3-3.5 10.2-4.4 13.3a257 257 0 0 0-6 23.7l-.6 3.3h-8.5l-8.4-.1.3-1.8a282.2 282.2 0 0 1 94.4-163.3 282.8 282.8 0 0 1 117.3-60c.2 0 .2.5.2 8.4zm0 87.2v8.9l-1.3.5-3.9 1.6a184.2 184.2 0 0 0-104 117.2l-.5 1.5h-17.3l1.4-5.2a199.8 199.8 0 0 1 125.6-133.4v8.9z" fill="#c4c4c4"/>
      <path d="m434 266.7.4 8.3a290.2 290.2 0 0 0 99.4 202.8 291.6 291.6 0 0 0 166.5 71h.3v16.7l-1.1-.1-4.9-.4a307.3 307.3 0 0 1-211.9-117 307.1 307.1 0 0 1-65.3-180.6v-1h16.7zm266.6 403.5v8.9l-1 .3a183.2 183.2 0 0 0-108.1 118.4l-.7 2.1h-17.2l.7-2.7a199.3 199.3 0 0 1 65.2-101.1 200.7 200.7 0 0 1 60-34.4l1.1-.4z" fill="#b7b7b7"/>
      <path d="m434 266.8.4 8.4a290 290 0 0 0 101 204 291.1 291.1 0 0 0 164.7 69.5l.5.1v16.6h-.4l-8-.7a306.4 306.4 0 0 1-207.3-114.1 308.1 308.1 0 0 1-67.5-183.4v-.9h16.7zm266.6 403.4v8.9l-2 .8a184 184 0 0 0-107 117.4l-.8 2.5h-17.2l.4-1.1a200 200 0 0 1 126.3-137.3l.3-.1z" fill="#a8a8a8"/>
      <path d="m434 267.3.5 10A290.2 290.2 0 0 0 479.7 415a294 294 0 0 0 130.5 111 288.6 288.6 0 0 0 90.2 22.8c.2 0 .2.5.2 8.3v8.3h-.3l-8-.7a306.9 306.9 0 0 1-146-55.8 310.2 310.2 0 0 1-105.2-132A306.9 306.9 0 0 1 417.4 267v-.6h16.7z" fill="#8a8a8a"/>
      <path d="M434 267.6A290.3 290.3 0 0 0 470.8 400a292.9 292.9 0 0 0 157.4 133.2l-2 .7a303.4 303.4 0 0 0-20.4 8.3l-2.1-.9a309.4 309.4 0 0 1-186.1-273.2l-.1-1.7H434zm266.6 290.6c0 6.5 0 7.2-.2 7.2a349.8 349.8 0 0 1-41.8-6.3l-1-.2.6-.2a258.7 258.7 0 0 1 41.8-7.6h.6z" fill="#747474"/>
      <path d="M607 524.7a294.5 294.5 0 0 0 21 8.5l-1 .4a305.2 305.2 0 0 0-21.3 8.6l-.6-.2-2.6-1.2c-4.6-2-10-4.5-14.1-6.6l-2.2-1 2.8-1.5c5.8-2.9 16.1-7.6 16.6-7.6l1.5.6z" fill="#6c6c6c"/>
    </g>
    <path d="m166.5 266.3v534h534v-534h-500zm34 33.6h466v466.9h-466z" fill-opacity=".31"/>
  </g>
<g transform="matrix(.40037 0 0 .40037 678.54 .36033)"><path d="m529.6-0.9-436.6 291v480.1l1.2 0.8v2.1l436.4 291 425.5-283.6 11-7.4v-480l-1.2 0.8 1.3-0.9-1.3-0.8v-2z"/><path transform="matrix(.9025 0 0 .9025 51.69 51.826)" d="m150 321.7h0.1l379.6-253.2 379.5 253v417.5l-379.7 252.9v-0.4l-379.5-252.5z" fill="#e7e7e8"/><path transform="matrix(.9025 0 0 .9025 51.69 51.826)" d="m530.7 488.6-379.7 253 379.6 253 379.5-253-379.5-253z" fill="#a1a1a1"/><path transform="matrix(.9025 0 0 .9025 51.69 51.826)" d="m530.7 994v-240.6l-379.7-252.4v240.6z" fill="#dadada"/><path transform="matrix(.9025 0 0 .9025 51.69 51.826)" d="m530.7 994.4v-240.4l379.5-252.8v240.4z" fill="#b4b4b4"/><path transform="matrix(.9025 0 0 .9025 51.69 51.826)" d="m530.7 248-379.7 253 379.6 253 379.5-253-379.5-253z" fill="#fff"/><path transform="matrix(.9025 0 0 .9025 51.69 51.826)" d="m530.7 994v-417.4l-379.7-252.4v417.4zm0 0.5v-417.5l379.5-252.8v417.4z" fill="#757575" fill-opacity=".6"/><path transform="matrix(.9025 0 0 .9025 51.69 51.826)" d="m530.7 71.1-379.5 253 379.5 253 379.6-253z" fill="#fff" fill-opacity=".2"/><path transform="matrix(.9025 0 0 .9025 51.69 51.826)" d="m283.8 412.3 246.9-164.5 247 164.6-247 164.6z" fill="#fff"/></g></svg>
