<?xml version="1.0" encoding="UTF-8" standalone="no"?><!DOCTYPE svg PUBLIC "-//W3C//DTD SVG 1.1//EN" "http://www.w3.org/Graphics/SVG/1.1/DTD/svg11.dtd"><svg width="100%" height="100%" viewBox="0 0 63 63" version="1.1" xmlns="http://www.w3.org/2000/svg" xmlns:xlink="http://www.w3.org/1999/xlink" xml:space="preserve" xmlns:serif="http://www.serif.com/" style="fill-rule:evenodd;clip-rule:evenodd;stroke-linejoin:round;stroke-miterlimit:2;"><g id="ObjectIcons_Asset_Library_Filter"><g id="Base-Block" serif:id="Base Block"><path d="M62.964,9.405c-0,-4.829 -3.921,-8.75 -8.75,-8.75l-45,0c-4.83,0 -8.75,3.921 -8.75,8.75l-0,45c-0,4.829 3.92,8.75 8.75,8.75l45,0c4.829,0 8.75,-3.921 8.75,-8.75l-0,-45Z" style="fill-opacity:0;"/></g><g><path d="M29.812,13.487l-15.859,-0c-1.013,-0 -1.984,0.404 -2.699,1.122c-0.714,0.718 -1.113,1.691 -1.108,2.704c0.04,7.39 0.116,23.514 0.06,30.551l-4.567,-0l-0,-38.63l24.173,-0l-0,4.253l-0,-0Z" style="fill:#d8d8d8;"/><path d="M29.812,17.654l-15.497,-0c0.04,7.556 0.113,23.307 0.058,30.243c-0.019,2.288 -1.879,4.133 -4.167,4.133l-4.567,0c-2.302,0 -4.167,-1.865 -4.167,-4.166l-0,-38.63c-0,-2.301 1.865,-4.167 4.167,-4.167l24.173,0c2.301,0 4.167,1.866 4.167,4.167l-0,4.253c-0,0.982 -4.167,4.167 -4.167,4.167c-0,-0 -2.801,-3.462 -3.81,-4.167l3.81,0l-0,-4.253l-24.173,-0l-0,38.63l4.567,-0c0.056,-7.037 -0.02,-23.161 -0.06,-30.551c-0.005,-1.013 0.394,-1.986 1.108,-2.704c0.715,-0.718 1.686,-1.122 2.699,-1.122l11.692,0c0,2.301 1.866,4.167 4.167,4.167Z" style="fill:#222;"/><path d="M44.349,39.47l-0,14.233l-31.832,-0l-0,-37.756l19.452,-0l7.637,8.483l0,9.17l4.743,5.87Z" style="fill:#d8d8d8;"/><path d="M48.515,39.47l0,14.233c0,2.301 -1.865,4.166 -4.166,4.166l-31.832,0c-2.302,0 -4.167,-1.865 -4.167,-4.166l-0,-37.756c-0,-2.302 1.865,-4.167 4.167,-4.167l19.452,0c1.181,0 2.306,0.501 3.097,1.379l7.637,8.483c0.689,0.766 1.07,1.759 1.07,2.788l-0,7.697l3.817,4.724c0.598,0.742 0.925,1.666 0.925,2.619Zm-4.166,-0l-4.743,-5.87l0,-9.17l-7.637,-8.483l-19.452,-0l-0,37.756l31.832,-0l-0,-14.233Z" style="fill:#222;"/><path d="M42.022,22.295l-0,9.17l4.897,6.062l0,-15.232l9.795,-10.879l-0,-2.176l-24.486,-0l-0,2.176l9.794,10.879Z" style="fill:#d8d8d8;"/><path d="M37.855,23.895l-8.724,-9.691c-0.689,-0.766 -1.07,-1.759 -1.07,-2.788l-0,-2.176c-0,-2.301 1.865,-4.167 4.167,-4.167l24.486,0c2.301,0 4.166,1.866 4.166,4.167l0,2.176c0,1.029 -0.381,2.022 -1.07,2.788l-8.724,9.691l-0,13.632c-0,1.766 -1.113,3.34 -2.778,3.928c-1.665,0.589 -3.52,0.064 -4.63,-1.31l-4.897,-6.061c-0.599,-0.741 -0.926,-1.666 -0.926,-2.619l0,-7.57Zm4.167,-1.6l-0,9.17l4.897,6.062l0,-15.232l9.795,-10.879l-0,-2.176l-24.486,-0l-0,2.176l9.794,10.879Z" style="fill:#222;"/><path d="M28.988,40.331c0.003,0.609 0.27,1.154 0.695,1.496c0.423,0.38 0.695,0.959 0.695,1.602c0,1.154 -0.865,2.085 -1.932,2.085l-0.033,0c-1.068,0 -1.934,-0.931 -1.934,-2.085c-0,-0.643 0.274,-1.222 0.697,-1.602c0.423,-0.342 0.699,-0.887 0.695,-1.496l-0,-0.147c-0.004,-0.615 -0.272,-1.16 -0.695,-1.498c-0.423,-0.383 -0.697,-0.96 -0.697,-1.605c-0,-1.153 0.866,-2.086 1.934,-2.086l0.033,0c1.067,0 1.932,0.933 1.932,2.086c0,0.645 -0.272,1.222 -0.695,1.605c-0.425,0.338 -0.699,0.883 -0.695,1.498l-0,0.147Zm4.182,-3.436c0.003,0.61 0.277,1.156 0.715,1.497c0.435,0.381 0.715,0.959 0.715,1.601c-0,1.156 -0.89,2.086 -1.988,2.086l-0.034,0c-1.098,0 -1.989,-0.93 -1.989,-2.086c-0,-0.642 0.282,-1.22 0.717,-1.601c0.435,-0.341 0.719,-0.887 0.715,-1.497l-0,-0.146c-0.005,-0.614 -0.28,-1.16 -0.715,-1.499c-0.435,-0.383 -0.717,-0.96 -0.717,-1.603c-0,-1.154 0.891,-2.086 1.989,-2.086l0.034,-0c1.098,-0 1.988,0.932 1.988,2.086c-0,0.643 -0.28,1.22 -0.715,1.603c-0.438,0.339 -0.72,0.885 -0.715,1.499l-0,0.146Zm-8.285,0c0.004,0.61 0.281,1.156 0.723,1.497c0.439,0.381 0.722,0.959 0.722,1.601c0,1.156 -0.899,2.086 -2.008,2.086l-0.034,0c-1.111,0 -2.011,-0.93 -2.011,-2.086c-0,-0.642 0.285,-1.22 0.725,-1.601c0.439,-0.341 0.726,-0.887 0.722,-1.497l-0,-0.146c-0.004,-0.614 -0.283,-1.16 -0.722,-1.499c-0.44,-0.383 -0.725,-0.96 -0.725,-1.603c-0,-1.154 0.9,-2.086 2.011,-2.086l0.034,-0c1.109,-0 2.008,0.932 2.008,2.086c0,0.643 -0.283,1.22 -0.722,1.603c-0.442,0.339 -0.727,0.885 -0.723,1.499l-0,0.146Zm12.92,-0.296c-0,-0.871 -0.681,-1.578 -1.52,-1.578c-0.839,-0 -1.52,0.707 -1.52,1.578c-0,0.871 0.681,1.578 1.52,1.578c0.839,0 1.52,-0.707 1.52,-1.578Zm-15.688,0c-0,-0.871 -0.681,-1.578 -1.52,-1.578c-0.839,-0 -1.52,0.707 -1.52,1.578c-0,0.871 0.681,1.578 1.52,1.578c0.839,0 1.52,-0.707 1.52,-1.578Zm8.314,-5.538c0,-1.161 -0.908,-2.103 -2.026,-2.103c-1.119,-0 -2.027,0.942 -2.027,2.103c-0,1.162 0.908,2.104 2.027,2.104c1.118,0 2.026,-0.942 2.026,-2.104Z" style="fill:#222;fill-rule:nonzero;"/></g></g></svg>