<?xml version="1.0" encoding="UTF-8" standalone="no"?><!DOCTYPE svg PUBLIC "-//W3C//DTD SVG 1.1//EN" "http://www.w3.org/Graphics/SVG/1.1/DTD/svg11.dtd"><svg width="100%" height="100%" viewBox="0 0 63 63" version="1.1" xmlns="http://www.w3.org/2000/svg" xmlns:xlink="http://www.w3.org/1999/xlink" xml:space="preserve" xmlns:serif="http://www.serif.com/" style="fill-rule:evenodd;clip-rule:evenodd;stroke-linejoin:round;stroke-miterlimit:2;"><g id="ObjectIcons_Asset_Library"><g><g id="Base-Block" serif:id="Base Block"><path d="M62.989,9.405c0,-4.829 -3.921,-8.75 -8.75,-8.75l-45,0c-4.829,0 -8.75,3.921 -8.75,8.75l0,45c0,4.829 3.921,8.75 8.75,8.75l45,0c4.829,0 8.75,-3.921 8.75,-8.75l0,-45Z" style="fill-opacity:0;"/></g><g><path d="M13.671,50.208l-4.118,0c0.271,-1.067 0,-43.303 0,-43.303l27.294,0l3.97,3.876l-24.064,0c-0.841,0 -1.647,0.335 -2.24,0.932c-0.594,0.596 -0.924,1.405 -0.92,2.246c0.045,7.781 0.148,27.77 0.078,36.249Z" style="fill:#d8d8d8;"/><path d="M17.766,14.948c0.047,8.394 0.139,27.148 0.071,35.295c-0.018,2.287 -1.878,4.132 -4.166,4.132l-4.118,-0c-1.285,-0 -2.498,-0.593 -3.288,-1.608c-0.679,-0.873 -0.977,-1.973 -0.847,-3.057c0,-0 0.058,-2.077 0.073,-4.441c0.069,-11.343 -0.104,-38.337 -0.104,-38.337c-0.007,-1.11 0.429,-2.177 1.211,-2.964c0.782,-0.787 1.846,-1.23 2.955,-1.23l27.294,0c1.088,0 2.133,0.426 2.911,1.186l3.97,3.876c1.213,1.183 1.587,2.983 0.948,4.553c-0.639,1.569 -2.164,2.595 -3.859,2.595l-23.051,-0Zm-4.095,35.26c0.07,-8.479 -0.033,-28.468 -0.078,-36.249c-0.004,-0.841 0.326,-1.65 0.92,-2.246c0.593,-0.597 1.399,-0.932 2.24,-0.932l24.064,0l-3.97,-3.876l-27.294,0c0,0 0.271,42.236 0,43.303l4.118,0Z" style="fill:#222;"/><path d="M16.395,13.602l27.294,0l10.236,9.993l-0,33.31l-37.53,0c0.271,-1.067 0,-43.303 0,-43.303Z" style="fill:#d8d8d8;"/><path d="M12.26,56.406c0,0 0.058,-2.076 0.073,-4.44c0.069,-11.343 -0.104,-38.337 -0.104,-38.337c-0.007,-1.11 0.428,-2.177 1.211,-2.964c0.782,-0.787 1.846,-1.23 2.955,-1.23l27.294,0c1.088,0 2.133,0.426 2.911,1.186l10.235,9.993c0.803,0.784 1.256,1.859 1.256,2.981l0,33.31c0,2.301 -1.865,4.167 -4.166,4.167l-37.53,-0c-1.285,-0 -2.499,-0.594 -3.288,-1.608c-0.679,-0.873 -0.977,-1.973 -0.847,-3.058Zm4.135,-42.804c0,0 0.271,42.236 0,43.303l37.53,0l-0,-33.31l-10.236,-9.993l-27.294,0Z" style="fill:#222;"/><path d="M35.845,41.91c0.004,0.742 0.338,1.406 0.87,1.822c0.53,0.464 0.871,1.168 0.871,1.951c-0,1.406 -1.084,2.54 -2.419,2.54l-0.042,0c-1.337,0 -2.422,-1.134 -2.422,-2.54c0,-0.783 0.343,-1.487 0.874,-1.951c0.528,-0.416 0.874,-1.08 0.869,-1.822l0,-0.179c-0.005,-0.749 -0.341,-1.413 -0.869,-1.825c-0.531,-0.466 -0.874,-1.169 -0.874,-1.954c0,-1.405 1.085,-2.541 2.422,-2.541l0.042,0c1.335,0 2.419,1.136 2.419,2.541c-0,0.785 -0.341,1.488 -0.871,1.954c-0.532,0.412 -0.875,1.076 -0.87,1.825l-0,0.179Zm5.236,-4.185c0.004,0.744 0.347,1.408 0.895,1.824c0.544,0.463 0.895,1.168 0.895,1.95c-0,1.407 -1.114,2.541 -2.488,2.541l-0.043,-0c-1.375,-0 -2.491,-1.134 -2.491,-2.541c0,-0.782 0.353,-1.487 0.899,-1.95c0.543,-0.416 0.899,-1.08 0.894,-1.824l0,-0.178c-0.005,-0.748 -0.351,-1.412 -0.894,-1.825c-0.546,-0.467 -0.899,-1.169 -0.899,-1.953c0,-1.405 1.116,-2.541 2.491,-2.541l0.043,-0c1.374,-0 2.488,1.136 2.488,2.541c-0,0.784 -0.351,1.486 -0.895,1.953c-0.548,0.413 -0.901,1.077 -0.895,1.825l-0,0.178Zm-10.373,0c0.005,0.744 0.352,1.408 0.905,1.824c0.55,0.463 0.904,1.168 0.904,1.95c0,1.407 -1.126,2.541 -2.514,2.541l-0.043,-0c-1.391,-0 -2.518,-1.134 -2.518,-2.541c0,-0.782 0.357,-1.487 0.908,-1.95c0.55,-0.416 0.909,-1.08 0.904,-1.824l0,-0.178c-0.005,-0.748 -0.354,-1.412 -0.904,-1.825c-0.551,-0.467 -0.908,-1.169 -0.908,-1.953c0,-1.405 1.127,-2.541 2.518,-2.541l0.043,-0c1.388,-0 2.514,1.136 2.514,2.541c0,0.784 -0.354,1.486 -0.904,1.953c-0.553,0.413 -0.91,1.077 -0.905,1.825l-0,0.178Zm16.176,-0.36c0,-1.061 -0.853,-1.922 -1.903,-1.922c-1.05,-0 -1.903,0.861 -1.903,1.922c-0,1.061 0.853,1.922 1.903,1.922c1.05,-0 1.903,-0.861 1.903,-1.922Zm-19.642,-0c0,-1.061 -0.853,-1.922 -1.903,-1.922c-1.05,-0 -1.903,0.861 -1.903,1.922c-0,1.061 0.853,1.922 1.903,1.922c1.05,-0 1.903,-0.861 1.903,-1.922Zm10.41,-6.745c0,-1.414 -1.137,-2.562 -2.538,-2.562c-1.4,-0 -2.537,1.148 -2.537,2.562c-0,1.414 1.137,2.562 2.537,2.562c1.401,0 2.538,-1.148 2.538,-2.562Z" style="fill:#222;fill-rule:nonzero;"/></g></g></g></svg>