<?xml version="1.0" encoding="UTF-8" standalone="no"?>
<!DOCTYPE svg PUBLIC "-//W3C//DTD SVG 1.1//EN" "http://www.w3.org/Graphics/SVG/1.1/DTD/svg11.dtd">
<svg xmlns="http://www.w3.org/2000/svg" xml:space="preserve" fill-rule="evenodd" stroke-linejoin="round" stroke-miterlimit="2" clip-rule="evenodd" viewBox="0 0 16 16">
  <path fill="none" d="M0 0h16v16H0z"/>
  <path fill="#fff" fill-rule="nonzero" d="M3.94 9.575a6.78 6.78 0 0 0 2.719 5.424 7.545 7.545 0 0 1 2.714 5.805 7.55 7.55 0 0 1-7.551 7.555h-.129c-4.178 0-7.565-3.377-7.565-7.555a7.558 7.558 0 0 1 2.729-5.805c1.65-1.24 2.733-3.215 2.714-5.424v-.529c-.015-2.228-1.064-4.207-2.714-5.433a7.586 7.586 0 0 1-2.729-5.814 7.557 7.557 0 0 1 7.565-7.556h.129a7.55 7.55 0 0 1 7.551 7.556 7.573 7.573 0 0 1-2.714 5.814A6.674 6.674 0 0 0 3.94 9.046v.529Zm5.434-34.579a7.624 7.624 0 0 1-7.622 7.623c-4.203 0-7.623-3.416-7.623-7.623 0-4.207 3.42-7.622 7.623-7.622a7.623 7.623 0 0 1 7.622 7.622M20.553-1.86a6.8 6.8 0 0 0 2.714 5.428 7.533 7.533 0 0 1 2.719 5.8 7.547 7.547 0 0 1-7.551 7.555h-.133a7.552 7.552 0 0 1-7.561-7.555 7.541 7.541 0 0 1 2.729-5.8c1.65-1.24 2.728-3.22 2.714-5.428v-.53c-.015-2.227-1.064-4.207-2.714-5.433a7.583 7.583 0 0 1-2.729-5.809 7.558 7.558 0 0 1 7.561-7.561h.133a7.552 7.552 0 0 1 7.551 7.561 7.574 7.574 0 0 1-2.719 5.809 6.67 6.67 0 0 0-2.714 5.433v.53Zm-37.598 0a6.803 6.803 0 0 1-2.718 5.428 7.53 7.53 0 0 0-2.719 5.8 7.548 7.548 0 0 0 7.555 7.555h.129a7.553 7.553 0 0 0 7.565-7.555 7.54 7.54 0 0 0-2.728-5.8c-1.651-1.24-2.733-3.22-2.714-5.428v-.53c.014-2.227 1.063-4.207 2.714-5.433a7.582 7.582 0 0 0 2.728-5.809 7.558 7.558 0 0 0-7.565-7.561h-.129a7.553 7.553 0 0 0-7.555 7.561 7.571 7.571 0 0 0 2.719 5.809 6.685 6.685 0 0 1 2.718 5.433v.53Zm54.572-.275a5.066 5.066 0 0 1-5.066 5.066A5.069 5.069 0 0 1 27.4-2.135a5.064 5.064 0 0 1 10.127 0m-61.423 0a5.065 5.065 0 0 1-5.061 5.066 5.07 5.07 0 0 1-5.066-5.066 5.065 5.065 0 0 1 5.066-5.061 5.061 5.061 0 0 1 5.061 5.061" transform="translate(7.655 8.418) scale(.19436)"/>
</svg>
